<svg width="746" height="899" viewBox="0 0 746 899" fill="none" xmlns="http://www.w3.org/2000/svg">
<g clip-path="url(#clip0)">
<path d="M746.075 0H-1.89014V900.001H746.075V0Z" fill="url(#paint0_linear)"/>
<path d="M0 0.101068V284C27.13 256.914 42.7709 219.923 62.1771 186.268C81.6798 152.41 108.52 119.159 145.498 110.568C177.262 103.19 210.378 115.621 238.57 132.601C266.763 149.58 292.541 171.209 322.374 184.954C374.993 209.109 436.302 206.178 490.852 187.076C545.305 167.974 593.869 134.016 639.343 97.2271C663.48 77.62 686.941 57.1033 709.726 35.6769C721.505 24.5594 733.284 12.7345 744.001 0H0V0.101068Z" fill="url(#paint1_linear)"/>
<path d="M-52 0.149024V145C-31.3943 139.039 -11.7876 126.819 4.07265 109.83C16.3112 96.8655 26.5517 81.069 40.2888 70.4883C71.8843 46.1974 113.47 54.2447 149.187 68.2529C184.903 82.2611 220.995 101.485 258.46 96.8655C301.544 91.5006 338.26 49.4759 349 0H-52V0.149024Z" fill="url(#paint2_linear)"/>
<path d="M746.856 0H379.136C372.411 20.1243 372.135 42.4642 379.228 62.4962C390.005 93.0519 417.272 117.146 448.867 123.977C488.844 132.562 531.309 114.93 570.918 124.9C598.921 131.916 622.133 152.225 638.437 176.041C649.583 192.381 658.15 210.567 671.23 225.337C690.666 247.215 717.84 259.123 746.671 265.678V0H746.856Z" fill="url(#paint3_linear)"/>
<path opacity="0.22" d="M727.076 175.891C736.335 175.891 743.841 168.369 743.841 159.09C743.841 149.811 736.335 142.289 727.076 142.289C717.817 142.289 710.312 149.811 710.312 159.09C710.312 168.369 717.817 175.891 727.076 175.891Z" fill="url(#paint4_radial)"/>
<path d="M719.985 163.335C728.023 163.335 734.539 156.805 734.539 148.75C734.539 140.694 728.023 134.164 719.985 134.164C711.947 134.164 705.431 140.694 705.431 148.75C705.431 156.805 711.947 163.335 719.985 163.335Z" fill="url(#paint5_linear)"/>
<path opacity="0.22" d="M530.414 81.2694C546.795 81.2694 560.075 67.9611 560.075 51.5445C560.075 35.1279 546.795 21.8196 530.414 21.8196C514.033 21.8196 500.753 35.1279 500.753 51.5445C500.753 67.9611 514.033 81.2694 530.414 81.2694Z" fill="url(#paint6_radial)"/>
<path d="M517.795 59.2058C532.039 59.2058 543.587 47.6334 543.587 33.358C543.587 19.0827 532.039 7.51025 517.795 7.51025C503.55 7.51025 492.003 19.0827 492.003 33.358C492.003 47.6334 503.55 59.2058 517.795 59.2058Z" fill="url(#paint7_linear)"/>
<path d="M669.3 112.436L664.154 117.593L669.3 122.749L674.445 117.593L669.3 112.436Z" fill="white"/>
<path d="M669.294 83.2617L664.148 88.4184L669.294 93.5751L674.439 88.4184L669.294 83.2617Z" fill="white"/>
<path d="M669.276 54.0691L664.131 59.2258L669.276 64.3825L674.422 59.2258L669.276 54.0691Z" fill="white"/>
<path d="M672.914 144.688H664.624V284.081H672.914V144.688Z" stroke="url(#paint8_linear)" stroke-miterlimit="10"/>
<path d="M233.653 55.9578C246.872 54.2547 256.211 42.1344 254.512 28.8863C252.812 15.6382 240.718 6.27919 227.498 7.98228C214.279 9.68538 204.94 21.8057 206.64 35.0538C208.339 48.3018 220.433 57.6609 233.653 55.9578Z" stroke="url(#paint9_linear)" stroke-miterlimit="10"/>
<path d="M745.684 606.046C741.171 614.3 736.657 622.554 731.867 630.621C713.26 662.042 687.653 692.901 652.373 700.874C622.067 707.721 590.564 696.184 563.575 680.426C536.678 664.669 512.083 644.596 483.62 631.84C433.417 609.423 374.925 612.143 322.88 629.87C270.928 647.598 224.595 679.113 181.209 713.255C158.272 731.357 136.073 750.304 114.518 770.001H745.684V606.046Z" fill="url(#paint10_linear)"/>
<path d="M541.148 764.36C518.949 735.002 484.222 715.023 447.653 714.93C431.901 714.93 416.15 718.025 400.398 716.806C378.659 715.117 357.657 704.518 343.011 688.01C343.011 688.01 332.971 668.688 307.179 623.667C281.387 578.645 231.646 548.63 181.904 559.886C132.162 571.141 113.832 558.01 113.832 558.01C96.6063 547.692 82.2365 529.871 81.9602 509.611C81.5918 490.008 93.935 472.562 97.159 453.334C102.41 421.631 80.8549 389.458 51.931 376.421C35.5347 369.011 17.4803 366.854 -0.481934 368.542V764.36H541.148Z" fill="url(#paint11_linear)"/>
<path opacity="0.22" d="M76.2939 470.77C80.9234 470.77 84.6763 466.948 84.6763 462.234C84.6763 457.519 80.9234 453.698 76.2939 453.698C71.6645 453.698 67.9116 457.519 67.9116 462.234C67.9116 466.948 71.6645 470.77 76.2939 470.77Z" fill="url(#paint12_radial)"/>
<path d="M72.7951 464.393C76.8141 464.393 80.0721 461.076 80.0721 456.984C80.0721 452.891 76.8141 449.574 72.7951 449.574C68.7761 449.574 65.5181 452.891 65.5181 456.984C65.5181 461.076 68.7761 464.393 72.7951 464.393Z" fill="url(#paint13_linear)"/>
<path opacity="0.22" d="M102.482 723.426C110.164 723.426 116.391 717.085 116.391 709.263C116.391 701.441 110.164 695.1 102.482 695.1C94.7997 695.1 88.5723 701.441 88.5723 709.263C88.5723 717.085 94.7997 723.426 102.482 723.426Z" fill="url(#paint14_radial)"/>
<path d="M96.585 712.921C103.25 712.921 108.652 707.42 108.652 700.634C108.652 693.848 103.25 688.347 96.585 688.347C89.9207 688.347 84.5181 693.848 84.5181 700.634C84.5181 707.42 89.9207 712.921 96.585 712.921Z" fill="url(#paint15_linear)"/>
<path d="M630.837 713.809L627.519 717.195L630.837 720.582L634.155 717.195L630.837 713.809Z" fill="white"/>
<path d="M649.716 713.787L646.394 717.169L649.716 720.551L653.037 717.169L649.716 713.787Z" fill="white"/>
<path d="M668.587 713.749L665.265 717.131L668.587 720.514L671.909 717.131L668.587 713.749Z" fill="white"/>
<path d="M600.079 668.227L594.828 664.287C593.999 663.631 593.815 662.411 594.46 661.567C595.105 660.723 596.302 660.535 597.131 661.192L600.079 663.443C600.724 663.912 601.737 663.912 602.382 663.443L606.803 659.973C607.448 659.41 608.369 659.41 609.106 659.973L613.619 663.349C614.264 663.818 615.278 663.818 615.922 663.349L620.344 659.879C620.989 659.316 621.91 659.316 622.647 659.879L627.16 663.256C627.805 663.725 628.818 663.725 629.463 663.256L633.885 659.785C634.529 659.222 635.45 659.222 636.187 659.785L641.438 663.725C642.267 664.381 642.451 665.6 641.806 666.445C641.162 667.289 639.964 667.476 639.135 666.82L636.187 664.569C635.543 664.1 634.529 664.1 633.885 664.569L629.463 668.039C628.818 668.602 627.897 668.602 627.16 668.039L622.647 664.662C622.002 664.193 620.989 664.193 620.344 664.662L615.922 668.133C615.278 668.696 614.356 668.696 613.619 668.133L609.106 664.756C608.461 664.287 607.448 664.287 606.803 664.756L602.382 668.227C601.645 668.789 600.724 668.789 600.079 668.227Z" fill="white"/>
<path d="M56.5248 403.57L51.2743 399.631C50.4453 398.974 50.261 397.755 50.9058 396.911C51.5506 396.067 52.7481 395.879 53.5772 396.536L56.5248 398.787C57.1696 399.256 58.1829 399.256 58.8277 398.787L63.2491 395.316C63.8939 394.754 64.8151 394.754 65.552 395.316L70.0656 398.693C70.7104 399.162 71.7236 399.162 72.3684 398.693L76.7899 395.223C77.4347 394.66 78.3558 394.66 79.0927 395.223L83.6063 398.599C84.2511 399.068 85.2644 399.068 85.9092 398.599L90.3306 395.129C90.9754 394.566 91.8966 394.566 92.6335 395.129L97.884 399.068C98.713 399.725 98.8972 400.944 98.2524 401.788C97.6076 402.633 96.4101 402.82 95.5811 402.164L92.6335 399.912C91.9887 399.443 90.9754 399.443 90.3306 399.912L85.817 403.383C85.1723 403.946 84.2511 403.946 83.5142 403.383L79.0006 400.006C78.3558 399.537 77.3426 399.537 76.6978 400.006L72.2763 403.477C71.6315 404.039 70.7104 404.039 69.9734 403.477L65.4599 400.1C64.8151 399.631 63.8018 399.631 63.157 400.1L58.7355 403.57C58.1828 404.133 57.2617 404.133 56.5248 403.57Z" fill="white"/>
<path d="M705.641 646.467C727.517 646.467 745.25 628.41 745.25 606.135C745.25 583.86 727.517 565.803 705.641 565.803C683.766 565.803 666.032 583.86 666.032 606.135C666.032 628.41 683.766 646.467 705.641 646.467Z" stroke="url(#paint16_linear)" stroke-width="2" stroke-miterlimit="10" stroke-linecap="round" stroke-linejoin="round"/>
<path d="M-6.34518 557.821C-2.66976 570.839 10.7184 578.358 23.5582 574.615C36.3979 570.873 43.8271 557.286 40.1517 544.268C36.4762 531.251 23.0881 523.732 10.2483 527.474C-2.59144 531.217 -10.0206 544.804 -6.34518 557.821Z" stroke="url(#paint17_linear)" stroke-opacity="0.8" stroke-width="5" stroke-miterlimit="10"/>
<path d="M372 806.101C514.901 806.101 645.801 781.601 747.001 741.001V900.101H-3V741.001C98.2001 781.601 229.1 806.101 372 806.101Z" fill="url(#paint18_linear)"/>
<path d="M686.401 762.301C707.601 755.801 727.801 748.701 747.001 741.101V743.801C730.501 751.201 713.201 758.201 695.201 764.601C692.301 763.701 689.401 763.001 686.401 762.301Z" fill="url(#paint19_linear)"/>
<path d="M58.3001 762.501C55.6001 763.301 52.9001 764.101 50.3001 765.101C31.8 758.501 14 751.301 -3 743.701V741.001C16.4 748.801 36.9 756.001 58.3001 762.501Z" fill="url(#paint20_linear)"/>
<path d="M583.7 820.801C592.7 818.801 601.5 816.801 610.1 814.601C611.2 814.301 612.4 815.101 612.8 816.201C614.1 820.101 615.301 823.901 616.701 827.701C617.1 828.901 616.5 830.101 615.3 830.401C606.3 832.701 597.2 835.001 587.9 837.101C586.7 837.401 585.4 836.601 585.1 835.401C584.1 831.401 583.1 827.401 582.1 823.401C581.8 822.301 582.5 821.101 583.7 820.801ZM733.501 848.701C738.001 846.801 742.501 844.901 747.001 842.901V826.001C739.401 829.301 731.701 832.601 723.801 835.801C722.701 836.201 722.401 837.401 723.101 838.401C725.401 841.601 727.801 844.701 730.201 847.801C730.801 848.801 732.401 849.101 733.501 848.701ZM737.301 825.401C734.801 822.301 732.401 819.301 730.001 816.201C729.301 815.301 727.801 814.801 726.801 815.201C718.901 818.401 710.801 821.601 702.501 824.701C701.401 825.101 701.101 826.301 701.701 827.301C703.801 830.601 706.001 833.901 708.201 837.101C708.901 838.101 710.301 838.601 711.501 838.101C720.101 834.801 728.501 831.301 736.801 827.801C737.801 827.501 738.101 826.401 737.301 825.401ZM615.6 815.601C616.9 819.401 618.2 823.301 619.6 827.101C620 828.301 621.301 829.001 622.401 828.701C631.301 826.301 639.901 823.801 648.401 821.301C649.501 821.001 650.001 819.801 649.501 818.701C647.901 815.101 646.301 811.401 644.701 807.801C644.201 806.701 643.001 806.001 641.901 806.301C633.701 808.601 625.401 810.901 616.901 813.101C615.801 813.201 615.2 814.401 615.6 815.601ZM705.001 838.401C702.801 835.101 700.701 831.801 698.601 828.501C698.001 827.501 696.501 827.001 695.501 827.401C687.101 830.501 678.501 833.501 669.801 836.401C668.701 836.801 668.201 838.001 668.701 839.001C670.501 842.501 672.401 846.001 674.301 849.501C674.901 850.601 676.301 851.101 677.501 850.701C686.601 847.601 695.501 844.301 704.201 841.001C705.301 840.601 705.701 839.401 705.001 838.401ZM747.001 847.101V845.801C746.801 846.201 746.801 846.601 747.001 847.101ZM747.001 787.601C741.901 789.801 736.601 792.101 731.301 794.301C730.301 794.701 730.201 795.801 730.901 796.701C733.301 799.801 735.801 802.801 738.301 805.801C739.101 806.701 740.501 807.101 741.501 806.701C743.301 805.901 745.101 805.101 747.001 804.301V787.601ZM677.601 797.401C679.501 800.801 681.501 804.301 683.401 807.701C684.001 808.701 685.301 809.301 686.401 808.901C694.401 806.101 702.101 803.301 709.701 800.401C710.701 800.001 710.901 798.901 710.201 797.901C708.001 794.701 705.701 791.501 703.601 788.201C702.901 787.201 701.601 786.701 700.701 787.001C693.401 789.701 686.001 792.301 678.301 794.801C677.301 795.201 677.001 796.301 677.601 797.401ZM706.001 787.301C708.201 790.501 710.501 793.701 712.701 796.901C713.401 797.901 714.801 798.401 715.701 798.001C723.201 795.101 730.501 792.101 737.701 789.101C738.601 788.701 738.801 787.601 738.001 786.701C735.501 783.701 733.001 780.701 730.501 777.701C729.701 776.801 728.401 776.301 727.501 776.701C720.601 779.501 713.601 782.201 706.401 784.901C705.601 785.301 705.401 786.301 706.001 787.301ZM647.501 806.801C649.101 810.401 650.701 814.101 652.401 817.701C652.901 818.801 654.201 819.401 655.301 819.101C663.701 816.501 671.901 813.801 680.001 811.101C681.001 810.701 681.401 809.601 680.801 808.501C678.901 805.101 676.901 801.601 675.001 798.201C674.401 797.101 673.101 796.501 672.101 796.901C664.401 799.401 656.501 801.901 648.401 804.201C647.401 804.501 647.001 805.701 647.501 806.801ZM670.901 850.601C669.001 847.101 667.201 843.601 665.401 840.101C664.801 839.001 663.501 838.401 662.301 838.801C653.401 841.701 644.4 844.401 635.1 847.101C633.9 847.401 633.3 848.701 633.8 849.801C635.301 853.501 636.901 857.201 638.501 860.901C639.001 862.001 640.4 862.601 641.6 862.301C651.201 859.401 660.601 856.401 669.801 853.301C671.001 852.901 671.501 851.701 670.901 850.601ZM577.9 884.101C579 888.101 580.1 892.001 581.2 896.001C581.5 897.201 583 897.901 584.4 897.601C595.2 894.901 605.8 892.201 616.201 889.301C617.6 888.901 618.3 887.701 617.8 886.501C616.4 882.701 614.9 878.901 613.6 875.101C613.2 873.901 611.8 873.301 610.5 873.601C600.4 876.301 590.2 878.901 579.7 881.301C578.4 881.701 577.6 882.901 577.9 884.101ZM598.7 837.201C589.5 839.401 580 841.601 570.4 843.601C569.1 843.901 568.3 845.101 568.6 846.301C569.5 850.401 570.4 854.401 571.4 858.401C571.7 859.601 573 860.401 574.3 860.101C584.3 857.901 594.1 855.501 603.7 853.101C605 852.801 605.6 851.601 605.3 850.401C604 846.501 602.8 842.601 601.6 838.801C601.2 837.601 599.9 836.901 598.7 837.201ZM494 900.101H534.4C534 897.901 533.6 895.801 533.2 893.601C533 892.301 531.6 891.501 530.2 891.801C519.2 893.901 507.9 895.801 496.5 897.601C495.1 897.801 494.1 898.901 494 900.101ZM302 867.201C300.4 867.201 298.7 868.301 298.2 869.801C296.8 874.601 295.4 879.401 294 884.201C293.6 885.701 294.6 886.901 296.3 886.901C315 887.201 333.4 887.201 351.3 886.701C352.9 886.701 354.5 885.501 354.7 884.001C355.6 879.301 356.5 874.601 357.5 869.901C357.8 868.501 356.8 867.301 355.2 867.301C337.9 867.701 320.2 867.701 302 867.201ZM300.8 861.601C300.3 863.101 301.3 864.301 302.9 864.301C328.9 865.001 354.1 864.801 378.5 864.001C380 863.901 381.5 862.701 381.7 861.301C382.5 856.601 383.3 852.001 384.2 847.301C384.5 845.901 383.5 844.701 382 844.801C358.5 845.401 334.1 845.401 309 844.601C307.4 844.501 305.7 845.701 305.3 847.201C303.8 852.001 302.2 856.801 300.8 861.601ZM671.301 818.701C673.201 822.201 675.001 825.701 676.901 829.101C677.501 830.201 678.901 830.701 680.001 830.301C688.601 827.401 696.901 824.301 705.101 821.201C706.201 820.801 706.501 819.701 705.801 818.701C703.601 815.401 701.501 812.201 699.301 808.901C698.601 807.901 697.301 807.401 696.301 807.701C688.401 810.601 680.401 813.301 672.201 816.101C671.101 816.501 670.701 817.701 671.301 818.701ZM702.001 808.001C704.201 811.301 706.301 814.501 708.501 817.801C709.201 818.801 710.601 819.301 711.601 818.901C719.701 815.801 727.601 812.601 735.301 809.301C736.301 808.901 736.501 807.801 735.701 806.801C733.201 803.801 730.801 800.701 728.401 797.601C727.701 796.701 726.301 796.201 725.301 796.601C717.901 799.601 710.301 802.501 702.501 805.401C701.601 805.901 701.301 807.001 702.001 808.001ZM640.501 840.701C638.901 837.001 637.401 833.301 635.901 829.601C635.401 828.501 634.1 827.801 633 828.101C624.201 830.601 615.3 833.001 606.1 835.301C604.9 835.601 604.2 836.801 604.6 838.001C605.8 841.901 607.1 845.701 608.3 849.601C608.7 850.801 610 851.501 611.3 851.201C620.8 848.701 630.1 846.101 639.201 843.401C640.401 843.101 641.001 841.901 640.501 840.701ZM743.601 825.001C744.701 824.501 745.901 824.001 747.001 823.501V806.701C742.501 808.701 738.001 810.601 733.401 812.501C732.401 812.901 732.201 814.001 732.901 815.001C735.301 818.101 737.801 821.101 740.301 824.101C741.101 825.101 742.501 825.501 743.601 825.001ZM580.3 838.901C581.5 838.601 582.3 837.401 582 836.201C581 832.201 580.1 828.201 579.1 824.201C578.8 823.001 577.6 822.201 576.5 822.401C567.4 824.301 558.2 826.101 548.8 827.801C547.6 828.001 546.7 829.201 546.9 830.501C547.5 834.701 548.2 838.801 548.8 843.001C549 844.301 550.2 845.101 551.5 844.901C561.2 843.001 570.9 841.001 580.3 838.901ZM638.801 828.801C640.301 832.501 641.901 836.201 643.501 839.801C644.001 840.901 645.301 841.501 646.501 841.201C655.501 838.501 664.401 835.601 673.001 832.701C674.101 832.301 674.601 831.101 674.001 830.101C672.101 826.601 670.301 823.101 668.401 819.601C667.801 818.501 666.501 817.901 665.401 818.301C657.101 821.001 648.601 823.601 639.901 826.101C638.901 826.501 638.301 827.701 638.801 828.801ZM635 861.901C633.401 858.201 631.901 854.501 630.401 850.701C629.901 849.601 628.601 848.901 627.401 849.201C618.1 851.801 608.5 854.401 598.8 856.801C597.5 857.101 596.8 858.301 597.2 859.501C598.4 863.401 599.6 867.301 600.9 871.201C601.3 872.401 602.7 873.101 604 872.701C614.1 870.101 624 867.301 633.701 864.501C634.801 864.301 635.401 863.101 635 861.901ZM557.3 881.501C556.4 877.401 555.6 873.401 554.7 869.301C554.4 868.001 553.2 867.201 551.8 867.501C541.5 869.601 531 871.501 520.3 873.401C518.9 873.601 517.9 874.901 518.1 876.201C518.6 880.401 519.2 884.701 519.7 888.901C519.9 890.201 521.2 891.001 522.6 890.801C533.7 888.801 544.6 886.701 555.3 884.401C556.7 884.001 557.6 882.701 557.3 881.501ZM479.9 900.101H489.8C489.3 899.301 488.3 898.901 487.2 899.001C484.8 899.401 482.4 899.801 479.9 900.101ZM385.3 890.801C384.9 893.901 384.5 897.001 384.2 900.101H426.5C426.7 896.001 426.9 891.901 427.1 887.801C427.2 886.401 426 885.401 424.5 885.501C412.7 886.501 400.7 887.401 388.5 888.001C386.9 888.101 385.5 889.301 385.3 890.801ZM524.8 852.201C514.6 853.901 504.2 855.501 493.7 856.901C492.3 857.101 491.3 858.301 491.3 859.701C491.5 864.101 491.7 868.401 492 872.701C492.1 874.001 493.3 874.901 494.7 874.701C505.6 873.101 516.4 871.401 527 869.501C528.4 869.301 529.3 868.001 529.2 866.701C528.6 862.501 528.1 858.301 527.6 854.101C527.3 852.901 526.1 852.001 524.8 852.201ZM470.9 841.401C470.8 845.801 470.7 850.301 470.7 854.701C470.7 856.101 471.8 857.001 473.2 856.901C483.9 855.601 494.5 854.301 504.9 852.701C506.3 852.501 507.3 851.301 507.2 849.901C506.9 845.601 506.6 841.301 506.4 836.901C506.3 835.601 505.2 834.601 503.9 834.801C493.9 836.201 483.7 837.401 473.4 838.501C472.1 838.801 471 840.101 470.9 841.401ZM509.8 836.601C510.1 840.901 510.4 845.201 510.7 849.501C510.8 850.801 512 851.701 513.3 851.501C523.6 849.901 533.7 848.201 543.6 846.401C544.9 846.201 545.8 844.901 545.6 843.701C545 839.501 544.3 835.401 543.7 831.201C543.5 829.901 542.4 829.001 541.1 829.301C531.6 831.001 521.9 832.501 512 833.901C510.7 834.001 509.7 835.201 509.8 836.601ZM361.4 886.501C373.8 886.101 386 885.501 398 884.801C399.6 884.701 401 883.501 401.1 882.101C401.6 877.501 402.1 872.901 402.7 868.301C402.9 866.901 401.8 865.801 400.3 865.901C388.7 866.501 376.9 867.001 364.9 867.301C363.3 867.301 361.8 868.501 361.6 870.001C360.7 874.701 359.8 879.401 358.9 884.101C358.6 885.401 359.8 886.501 361.4 886.501ZM291.7 892.401C291 895.001 290.3 897.501 289.6 900.101H379.6C380 897.101 380.4 894.001 380.8 891.001C381 889.601 379.9 888.501 378.3 888.601C351.6 889.901 324.1 890.301 295.6 889.801C293.9 889.801 292.1 890.901 291.7 892.401ZM538.2 900.101H573.9C574.5 900.001 575.1 899.801 575.7 899.701C577.1 899.401 578 898.101 577.6 896.901C576.5 892.901 575.4 889.001 574.3 885.001C574 883.801 572.6 883.001 571.2 883.401C560.6 885.801 549.9 888.101 539 890.201C537.6 890.501 536.6 891.701 536.8 893.001C537.3 895.301 537.8 897.701 538.2 900.101ZM747.001 768.601C742.401 770.601 737.801 772.501 733.101 774.501C732.201 774.901 732.101 775.901 732.901 776.801C735.401 779.801 737.901 782.801 740.501 785.701C741.301 786.601 742.701 787.001 743.601 786.601C744.801 786.101 745.901 785.601 747.101 785.101V768.601H747.001ZM747.001 862.301V851.601C746.201 850.601 745.401 849.701 744.601 848.701C743.801 847.801 742.301 847.401 741.201 847.901C694.601 868.001 642.401 885.801 584.5 900.101H645.901C681.901 888.701 715.601 876.001 747.001 862.301ZM485.1 858.101C474.4 859.501 463.6 860.701 452.5 861.801C451.1 861.901 449.8 863.201 449.8 864.501C449.6 869.001 449.5 873.501 449.4 877.901C449.4 879.301 450.6 880.301 452 880.101C463.4 878.901 474.7 877.501 485.7 876.001C487.1 875.801 488.2 874.601 488.2 873.201C488 868.901 487.8 864.501 487.6 860.101C487.6 858.901 486.5 857.901 485.1 858.101ZM727.201 849.001C724.801 845.901 722.501 842.701 720.201 839.501C719.501 838.501 718.001 838.101 716.901 838.501C708.301 841.901 699.501 845.201 690.501 848.501C689.301 848.901 688.901 850.101 689.501 851.101C691.501 854.501 693.601 857.901 695.701 861.201C696.301 862.201 697.801 862.701 699.101 862.201C708.401 858.701 717.501 855.201 726.401 851.501C727.501 851.101 727.901 850.001 727.201 849.001ZM443.6 862.701C432.5 863.701 421.1 864.601 409.6 865.301C408.1 865.401 406.7 866.601 406.6 868.001C406.1 872.601 405.6 877.201 405.1 881.801C405 883.201 406.1 884.301 407.7 884.201C419.6 883.401 431.3 882.401 442.9 881.201C444.4 881.101 445.6 879.801 445.7 878.401C445.8 873.901 446 869.401 446.2 864.901C446.2 863.501 445.1 862.501 443.6 862.701ZM564.2 882.401C574.8 880.101 585.2 877.601 595.4 875.101C596.7 874.801 597.5 873.501 597.1 872.301C595.9 868.401 594.7 864.501 593.5 860.601C593.1 859.401 591.8 858.701 590.5 859.001C580.7 861.401 570.6 863.601 560.4 865.801C559.1 866.101 558.2 867.301 558.5 868.601C559.4 872.701 560.2 876.701 561.2 880.801C561.5 881.901 562.8 882.701 564.2 882.401ZM656.201 874.901C654.401 871.301 652.701 867.701 651.001 864.101C650.501 863.001 649.1 862.401 647.801 862.801C638.201 865.801 628.5 868.601 618.5 871.401C617.2 871.801 616.501 873.001 616.901 874.201C618.301 878.001 619.701 881.801 621.201 885.501C621.6 886.701 623.1 887.301 624.5 886.901C634.801 883.901 644.901 880.901 654.801 877.701C656.101 877.301 656.701 876.001 656.201 874.901ZM692.601 862.401C690.501 859.001 688.501 855.601 686.501 852.201C685.901 851.201 684.401 850.601 683.301 851.101C674.201 854.301 665.001 857.401 655.501 860.401C654.301 860.801 653.701 862.001 654.201 863.101C655.901 866.701 657.701 870.301 659.501 873.801C660.001 874.901 661.501 875.401 662.801 875.001C672.601 871.801 682.201 868.401 691.601 865.001C692.801 864.601 693.301 863.401 692.601 862.401ZM535.4 868.101C545.9 866.201 556.1 864.101 566.2 862.001C567.5 861.701 568.3 860.501 568.1 859.201C567.2 855.201 566.3 851.101 565.4 847.001C565.1 845.801 563.9 844.901 562.6 845.201C552.9 847.201 543 849.101 532.9 850.801C531.6 851.001 530.7 852.301 530.8 853.601C531.3 857.801 531.9 862.001 532.5 866.201C532.7 867.501 534 868.301 535.4 868.101ZM430.4 845.001C429.9 849.601 429.5 854.101 429.1 858.701C429 860.101 430.1 861.101 431.5 861.001C442.7 860.101 453.8 859.101 464.6 857.901C466 857.701 467.2 856.501 467.2 855.201C467.3 850.801 467.4 846.301 467.5 841.801C467.5 840.401 466.5 839.401 465.1 839.601C454.6 840.601 444 841.601 433.2 842.301C431.8 842.401 430.5 843.601 430.4 845.001ZM425.3 859.001C425.7 854.401 426.2 849.901 426.7 845.301C426.9 843.901 425.8 842.801 424.4 842.901C413.5 843.601 402.4 844.101 391.1 844.501C389.6 844.601 388.2 845.801 388 847.201C387.2 851.901 386.4 856.501 385.6 861.201C385.4 862.601 386.4 863.701 387.9 863.701C399.6 863.201 411.1 862.501 422.4 861.701C423.9 861.601 425.2 860.401 425.3 859.001ZM479.1 897.601C490.7 896.001 502.1 894.201 513.3 892.301C514.8 892.101 515.8 890.801 515.6 889.501C515.1 885.301 514.5 881.001 514.1 876.801C514 875.501 512.7 874.601 511.3 874.901C500.5 876.701 489.5 878.301 478.3 879.701C476.8 879.901 475.7 881.101 475.7 882.501C475.9 886.901 476 891.201 476.3 895.601C476.3 896.901 477.6 897.801 479.1 897.601ZM431.5 887.401C431.3 891.601 431.1 895.901 431 900.101H460.2C463.3 899.701 466.3 899.301 469.4 898.901C470.9 898.701 472.1 897.401 472 896.101C471.8 891.701 471.7 887.401 471.5 883.001C471.5 881.701 470.2 880.701 468.8 880.901C457.5 882.301 446 883.501 434.3 884.601C432.8 884.801 431.5 886.001 431.5 887.401Z" fill="#D983D1"/>
<path d="M512.5 800.814C471.5 805.214 428.8 807.514 385 807.514C341.2 807.514 298.5 805.214 257.5 800.814C258.9 795.214 260.3 789.314 261.7 783.114C278.3 709.614 273.7 701.814 264.7 664.114C255.7 626.414 267.7 614.114 301 589.014C334.3 563.914 330.9 571.614 335.1 543.514C339.3 515.414 359.7 502.614 384.9 502.614C410.1 502.614 430.5 515.414 434.7 543.514C438.9 571.614 435.5 563.814 468.8 589.014C502.1 614.114 514.1 626.414 505.1 664.114C496.2 701.814 491.5 709.714 508.2 783.114C509.7 789.314 511.1 795.214 512.5 800.814Z" fill="url(#paint21_linear)"/>
<path d="M434.8 543.614C439 571.714 435.6 563.914 468.9 589.114C496.1 609.614 509.1 621.614 508 645.814C507.1 624.914 494.1 613.314 468.9 594.314C435.6 569.214 439 576.914 434.8 548.814C430.6 520.714 410.2 502.714 385 502.714C410.2 502.714 430.6 515.514 434.8 543.614Z" fill="url(#paint22_linear)"/>
<path d="M301.1 589.014C334.4 563.914 331 571.614 335.2 543.514C339.4 515.414 359.8 502.614 385 502.614C359.8 502.614 339.4 520.614 335.2 548.714C331 576.814 334.4 569.014 301.1 594.214C275.9 613.214 262.9 624.914 262 645.714C260.9 621.514 273.9 609.614 301.1 589.014Z" fill="url(#paint23_linear)"/>
<path d="M337 600.414C333.3 597.314 286.9 617.414 285 626.814C283.3 635.414 285.2 654.714 291.1 657.414C297 660.114 327.9 646.714 332.4 643.714C336.8 640.714 340.7 603.514 337 600.414Z" fill="#2E0066"/>
<path d="M437.6 643.714C442.1 646.714 473 660.114 478.9 657.414C484.8 654.714 486.7 635.414 485 626.814C483.2 617.414 436.7 597.314 433 600.414C429.3 603.514 433.2 640.714 437.6 643.714Z" fill="#2E0066"/>
<path d="M473.4 804.314C453.8 805.714 434 806.714 413.8 807.214C404.3 807.414 394.7 807.514 385 807.514C376.4 807.514 367.8 807.414 359.2 807.214C338.9 806.814 319 805.914 299.3 804.514C299.5 803.914 299.7 803.214 300 802.614C300.6 800.714 301.3 798.814 302 796.814C302.2 796.314 302.4 795.714 302.5 795.214C302.9 794.014 303.3 792.814 303.7 791.614C304 790.814 304.2 790.114 304.5 789.314C304.6 788.914 304.8 788.514 304.9 788.214C305.2 787.414 305.4 786.714 305.6 785.914C305.9 785.114 306.1 784.314 306.3 783.614C306.7 782.414 307 781.314 307.4 780.114C307.7 779.114 308 778.014 308.3 777.014C308.5 776.414 308.6 775.914 308.8 775.314C309.4 773.114 310.1 770.914 310.7 768.714V768.614C311 767.614 311.3 766.514 311.5 765.514C311.5 765.414 311.5 765.314 311.6 765.214C312.1 763.214 312.6 761.214 313 759.314C313 759.114 313.1 759.014 313.1 758.814C313.3 758.114 313.4 757.414 313.5 756.814C313.7 755.814 313.9 754.814 314.1 753.914C314.2 753.314 314.3 752.614 314.4 752.014C314.5 751.414 314.6 750.814 314.7 750.214C314.9 748.714 315.1 747.414 315.2 746.114C317.1 722.514 310.7 680.214 312.2 674.214C313.8 668.214 336.9 656.314 347.7 653.814C358.5 651.314 414 651.314 424.8 653.814C435.6 656.314 458.8 668.214 460.3 674.214C461.8 680.214 455.4 722.514 457.3 746.114C457.4 747.414 457.6 748.714 457.8 750.214C457.8 750.514 457.9 750.814 457.9 751.114C458 751.514 458 751.814 458.1 752.214C458.6 755.214 459.3 758.514 460.1 762.014C460.2 762.414 460.3 762.714 460.4 763.114C461 765.614 461.7 768.214 462.4 770.914C462.6 771.614 462.8 772.314 463 773.014C463.1 773.314 463.1 773.514 463.2 773.714C463.4 774.314 463.5 774.814 463.7 775.414C464.3 777.414 464.9 779.414 465.5 781.414C465.7 782.214 466 782.914 466.2 783.714C466.5 784.514 466.7 785.314 466.9 786.014C467.1 786.814 467.4 787.614 467.6 788.314C467.7 788.714 467.9 789.114 468 789.414C468.3 790.214 468.5 790.914 468.8 791.714C469.2 792.914 469.6 794.114 470 795.314C470.2 795.814 470.4 796.414 470.5 796.914C471.2 798.914 471.8 800.814 472.5 802.714C473 803.214 473.2 803.814 473.4 804.314Z" fill="url(#paint24_linear)"/>
<path d="M359.2 807.214C338.9 806.814 319 805.914 299.3 804.514C299.5 803.914 299.7 803.214 300 802.614C300.6 800.714 301.3 798.814 302 796.814C302.2 796.314 302.4 795.714 302.5 795.214C302.9 794.014 303.3 792.814 303.7 791.614C304 790.814 304.2 790.114 304.5 789.314C304.6 788.914 304.8 788.514 304.9 788.214C305.2 787.414 305.4 786.714 305.6 785.914C305.9 785.114 306.1 784.314 306.3 783.614C306.7 782.414 307 781.314 307.4 780.114C307.7 779.114 308 778.014 308.3 777.014C308.5 776.414 308.6 775.914 308.8 775.314C309.4 773.114 310.1 770.914 310.7 768.714V768.614C311 767.614 311.3 766.514 311.5 765.514C311.5 765.414 311.5 765.314 311.6 765.214C312.1 763.214 312.6 761.214 313 759.314C313 759.114 313.1 759.014 313.1 758.814C313.3 758.114 313.4 757.414 313.5 756.814C313.7 755.814 313.9 754.814 314.1 753.914C314.2 753.314 314.3 752.614 314.4 752.014C314.5 751.414 314.6 750.814 314.7 750.214L330.4 739.314C325.1 778.914 319.7 785.214 323.7 793.214C325.4 796.614 341.5 802.114 359.2 807.214Z" fill="url(#paint25_linear)"/>
<path d="M472.8 802.614C473 803.214 473.2 803.714 473.4 804.314C453.8 805.714 434 806.714 413.8 807.214C431.4 802.114 447.4 796.614 449.1 793.114C453 785.014 447.6 778.814 442.4 739.214L458.1 750.114C458.1 750.414 458.2 750.714 458.2 751.014C458.3 751.414 458.3 751.714 458.4 752.114C458.9 755.114 459.6 758.414 460.4 761.914C460.5 762.314 460.6 762.614 460.7 763.014C461.3 765.514 462 768.114 462.7 770.814C462.9 771.514 463.1 772.214 463.3 772.914C463.4 773.214 463.4 773.414 463.5 773.614C463.7 774.214 463.8 774.714 464 775.314C464.6 777.314 465.2 779.314 465.8 781.314C466 782.114 466.3 782.814 466.5 783.614C466.8 784.414 467 785.214 467.2 785.914C467.5 786.714 467.7 787.514 467.9 788.214C468 788.614 468.2 789.014 468.3 789.314C468.6 790.114 468.8 790.814 469.1 791.614C469.5 792.814 469.9 794.014 470.3 795.214C470.5 795.714 470.7 796.314 470.8 796.814C471.5 798.814 472.2 800.714 472.8 802.614Z" fill="url(#paint26_linear)"/>
<path d="M347 571.514C347 571.514 340 565.514 331 569.514C323 573.014 324.2 582.914 329 588.714C331.9 592.214 335.9 593.914 340.4 594.214C345.5 594.514 351.1 593.114 351.1 593.114L347 571.514Z" fill="#E537A8"/>
<path d="M334 592.614C334 592.614 334.1 592.614 334.1 592.714L334 592.614Z" fill="#FF00E7"/>
<path d="M329 588.714C330.1 590.014 331.3 591.014 332.6 591.814C332.6 591.814 332.5 591.814 332.5 591.714C329.7 589.214 327.7 585.714 327.3 582.014C327 578.314 328.4 574.314 331.4 572.014C333.3 570.614 335.6 569.914 337.9 569.614C339.9 569.414 341.9 569.414 343.9 569.514C341 568.214 336.4 567.014 331 569.414C323 573.014 324.2 582.914 329 588.714Z" fill="white"/>
<path d="M334 592.614C334 592.614 334.1 592.614 334.1 592.714L334 592.614Z" fill="#FF00E7"/>
<path d="M329 588.714C330.1 590.014 331.3 591.014 332.6 591.814C332.6 591.814 332.5 591.814 332.5 591.714C329.7 589.214 327.7 585.714 327.3 582.014C327 578.314 328.4 574.314 331.4 572.014C333.3 570.614 335.6 569.914 337.9 569.614C339.9 569.414 341.9 569.414 343.9 569.514C341 568.214 336.4 567.014 331 569.414C323 573.014 324.2 582.914 329 588.714Z" fill="url(#paint27_linear)"/>
<path d="M433 592.614C433 592.614 432.9 592.614 432.9 592.714L433 592.614Z" fill="#FF00E7"/>
<path d="M421.1 571.514C421.1 571.514 428.1 565.514 437.101 569.514C445.101 573.014 443.901 582.914 439.101 588.714C436.201 592.214 432.201 593.914 427.701 594.214C422.601 594.514 417 593.114 417 593.114L421.1 571.514Z" fill="#E537A8"/>
<path d="M439.1 588.714C438 590.014 436.8 591.014 435.5 591.814C435.5 591.814 435.6 591.814 435.6 591.714C438.4 589.214 440.4 585.714 440.8 582.014C441.1 578.314 439.7 574.314 436.7 572.014C434.8 570.614 432.5 569.914 430.2 569.614C428.2 569.414 426.2 569.414 424.2 569.514C427.1 568.214 431.7 567.014 437.1 569.414C445.1 573.014 443.9 582.914 439.1 588.714Z" fill="url(#paint28_linear)"/>
<path d="M386.4 615.214C446.801 615.214 465.401 634.414 451.701 651.714C441.701 664.314 405.301 669.714 391.701 680.214C388.601 682.614 384.301 682.614 381.201 680.214C367.5 669.714 331.2 664.314 321.2 651.714C307.4 634.314 326 615.214 386.4 615.214Z" fill="url(#paint29_linear)"/>
<path d="M386.4 615.214C446.801 615.214 465.401 634.414 451.701 651.714C441.701 664.314 405.301 669.714 391.701 680.214C388.601 682.614 384.301 682.614 381.201 680.214C367.5 669.714 331.2 664.314 321.2 651.714C307.4 634.314 326 615.214 386.4 615.214Z" fill="url(#paint30_linear)"/>
<path d="M447.601 650.714C460.301 633.914 442.301 617.514 387 617.314V615.114C446.901 615.214 465.301 634.314 451.601 651.614C444.701 660.414 425.001 665.614 409.001 671.614C423.801 665.314 441.501 658.914 447.601 650.714Z" fill="url(#paint31_linear)"/>
<path d="M385.701 615.214V617.414C330.501 617.514 312.5 634.014 325.101 650.814C331.301 659.014 348.901 665.414 363.601 671.814C347.701 665.914 328 660.614 321 651.814C307.4 634.414 325.901 615.314 385.701 615.214Z" fill="url(#paint32_linear)"/>
<path d="M386.4 645.014C397.887 645.014 407.2 641.298 407.2 636.714C407.2 632.13 397.887 628.414 386.4 628.414C374.912 628.414 365.6 632.13 365.6 636.714C365.6 641.298 374.912 645.014 386.4 645.014Z" fill="#2E0066"/>
<path d="M386.6 642.414C392.9 642.414 398 637.314 398 631.014V610.914H375.2V631.014C375.2 637.314 380.3 642.414 386.6 642.414Z" fill="#E537A8"/>
<path d="M390 626.314C385.6 626.414 381.2 626.014 376.8 625.114V631.714C376.8 636.314 380.5 640.114 385.2 640.114C389.8 640.114 393.6 636.414 393.6 631.714V625.914C392.4 626.114 391.2 626.214 390 626.314Z" fill="#FF96CE"/>
<path d="M347.4 536.114L384.6 530.814L421.8 536.114C421.8 536.114 423.3 566.814 422.6 583.414C421.8 600.414 417.1 621.714 384.6 621.714C352.1 621.714 347.4 600.314 346.6 583.414C345.9 566.814 347.4 536.114 347.4 536.114Z" fill="#E537A8"/>
<path d="M358 545.614C357.5 552.914 352.6 559.214 349.7 565.614C346 573.814 347 582.914 349.4 591.414C352.9 603.814 361.8 615.414 374.2 619.014C384.2 621.914 395.4 619.414 403.8 613.114C412.2 606.914 417.7 597.314 420.1 587.114C422.5 576.914 421.8 566.214 419.2 556.114C419.2 552.014 414.8 550.214 412 548.114C408.1 545.314 404.1 542.414 400.2 539.614C395 545.214 387.6 548.914 379.9 549.614C372.2 550.314 364.3 548.114 358.1 543.614C358.1 544.314 358.1 545.014 358 545.614Z" fill="#FF96CE"/>
<path d="M366.1 591.214C366.1 594.814 363.2 597.714 359.6 597.714C356 597.714 353.1 594.814 353.1 591.214C353.1 587.614 356 584.714 359.6 584.714C363.2 584.714 366.1 587.614 366.1 591.214Z" fill="#FFAEE1"/>
<path d="M403.101 591.214C403.101 594.814 406.001 597.714 409.601 597.714C413.201 597.714 416.101 594.814 416.101 591.214C416.101 587.614 413.201 584.714 409.601 584.714C406.001 584.714 403.101 587.614 403.101 591.214Z" fill="#FFAEE1"/>
<path d="M396.3 569.314C396.3 571.114 397.8 572.614 399.6 572.614C401.4 572.614 402.9 571.114 402.9 569.314C402.9 567.514 401.4 566.014 399.6 566.014C397.7 566.114 396.3 567.514 396.3 569.314Z" fill="#000626"/>
<path d="M372.9 569.314C372.9 571.114 371.4 572.614 369.6 572.614C367.8 572.614 366.3 571.114 366.3 569.314C366.3 567.514 367.8 566.014 369.6 566.014C371.5 566.114 372.9 567.514 372.9 569.314Z" fill="#000626"/>
<path d="M356.7 556.214L376 564.914C375.9 564.914 376.4 551.414 356.7 556.214Z" fill="#000626"/>
<path d="M413.8 553.014L393.2 557.714C393.2 557.614 395.4 544.414 413.8 553.014Z" fill="#000626"/>
<path d="M384.8 592.314C384.6 592.314 384.5 592.314 384.3 592.214C380.7 590.214 382.1 584.414 383 581.014C383.1 580.514 383.3 580.014 383.3 579.614C384.6 573.214 384.9 567.414 384.2 561.914C384.1 561.414 384.5 560.814 385.1 560.814C385.6 560.714 386.2 561.114 386.2 561.714C387 567.414 386.7 573.414 385.3 580.114C385.2 580.514 385.1 581.014 384.9 581.614C384.2 584.514 383 589.314 385.3 590.614C385.8 590.914 386 591.514 385.7 592.014C385.5 592.114 385.2 592.314 384.8 592.314Z" fill="#E537A8"/>
<path d="M397.9 591.014C392 596.714 382.9 599.914 375.7 599.214C375.7 599.214 380.3 607.814 391.3 604.314C402 601.014 397.9 591.014 397.9 591.014Z" fill="#FDFDFD"/>
<path d="M313.5 672.114C305.8 684.714 269.2 744.114 259.6 751.014C250 757.914 187.9 735.814 149.7 744.314C111.5 752.814 92.4997 824.114 174.8 832.614C257.1 841.114 286.2 824.614 301.7 808.014C317.2 791.414 331.1 745.614 331.8 727.914C332.7 710.114 313.5 672.114 313.5 672.114Z" fill="url(#paint33_linear)"/>
<path d="M459.3 672.114C467 684.714 503.6 744.114 513.2 751.014C522.8 757.914 584.901 735.814 623.101 744.314C661.301 752.814 680.301 824.114 598.001 832.614C515.7 841.114 486.6 824.614 471.1 808.014C455.5 791.414 441.7 745.614 441 727.914C440.1 710.114 459.3 672.114 459.3 672.114Z" fill="url(#paint34_linear)"/>
<path d="M604.101 751.514C592.201 752.714 580.101 756.214 571.001 764.014C562.501 771.314 557.201 782.314 557.301 793.514C557.501 804.714 563.301 815.814 572.801 821.714C584.801 829.214 600.201 827.914 614.001 824.714C624.101 822.414 634.101 819.114 642.601 813.314C651.201 807.514 658.201 798.914 660.501 788.914C668.201 754.914 628.101 749.214 604.101 751.514Z" fill="url(#paint35_linear)"/>
<path d="M654.7 809.514C652.1 804.914 648.9 800.714 644.6 797.714C635.8 791.714 623.5 791.614 613.3 791.514C602.5 791.414 591.5 791.714 581.2 795.314C572.3 798.414 565.7 804.414 560.6 812.214C558.2 815.814 556.2 819.514 554.1 823.314C547 818.214 541.8 810.214 541.9 801.514C542.5 768.514 590.6 761.114 615.3 758.214C628.1 756.714 640.7 758.914 651.2 769.314C660.5 778.414 664.1 793.614 657.9 805.014C656.9 806.614 655.9 808.114 654.7 809.514Z" fill="#E537A8"/>
<path d="M634.501 760.014C664.801 765.614 677.501 775.014 685.701 782.214C693.801 789.414 716.901 819.514 703.001 830.514C689.101 841.614 663.101 803.714 660.101 799.114C657.101 794.514 617.701 782.114 617.701 782.114L634.501 760.014Z" fill="#E537A8"/>
<path d="M614 764.414C641.8 775.014 660.4 788.814 661.8 793.714C663.2 798.714 673.1 831.114 658.4 836.714C643.7 842.314 637.8 827.514 633.7 809.514L630.6 797.714L598.4 777.514L614 764.414Z" fill="#E537A8"/>
<path d="M630.601 797.714C635.301 812.514 642.601 856.014 626.201 861.314C609.801 866.614 604.901 827.814 600.101 812.714C595.301 797.714 583.501 796.314 575.601 812.814C567.701 829.314 549.901 861.114 530.101 857.914C510.301 854.614 528.201 830.514 535.001 815.914C541.701 801.414 540.801 781.314 559.901 773.214C579.101 765.014 622.901 773.414 630.601 797.714Z" fill="#E537A8"/>
<path d="M621.201 757.714C649.601 755.214 685.501 763.514 699.501 768.214C713.501 772.914 721.101 781.114 716.501 791.514C711.901 801.914 666.701 792.214 666.701 792.214L621.201 757.714Z" fill="#E537A8"/>
<path d="M632.401 845.914C635.701 836.514 634.801 826.014 633.201 816.314C631.801 807.914 630.501 798.514 623.001 793.214C617.501 789.314 608.8 789.314 604.6 794.714C598.9 801.914 602.9 811.014 605 818.714C607.8 828.414 609.101 839.314 612.901 848.614C614.301 852.014 616.6 854.914 620.601 855.114C623.601 855.314 626.501 853.914 628.601 851.814C630.501 850.014 631.601 848.014 632.401 845.914Z" fill="#FE50B3"/>
<path d="M658.201 834.314C666.301 830.714 662.801 809.414 660.901 797.514C658.901 785.514 639.201 777.914 634.601 781.514C630.001 785.114 632.401 793.814 635.701 802.814C639.001 811.814 643.201 841.114 658.201 834.314Z" fill="#FE50B3"/>
<path d="M661.901 780.014C670.701 776.614 693.001 789.714 700.201 804.914C707.401 820.114 706.001 827.114 697.501 829.614C689.001 832.114 671.301 808.614 666.801 800.314C662.201 791.914 656.501 782.114 661.901 780.014Z" fill="#FE50B3"/>
<path d="M678.201 766.814C700.301 770.514 714.301 780.014 713.301 788.014C712.301 796.014 689.201 786.514 684.801 781.114C680.301 775.714 678.201 766.814 678.201 766.814Z" fill="#FE50B3"/>
<path d="M556.201 795.514C572.101 801.214 543.101 859.514 530.901 853.514C518.701 847.514 534.501 827.314 538.301 815.414C542.301 803.514 547.001 792.214 556.201 795.514Z" fill="#FE50B3"/>
<path d="M699.201 808.614C701.201 812.314 702.501 816.714 701.501 820.814C700.501 824.914 696.301 828.414 692.201 827.514C689.301 826.914 687.301 824.414 685.501 822.114C681.601 816.814 666.701 797.414 676.201 792.014C684.301 787.414 696.101 802.714 699.201 808.614Z" fill="#FF96CE"/>
<path d="M707.701 780.414C709.201 781.714 710.401 783.614 710.001 785.514C709.501 787.614 707.101 788.814 705.001 788.914C702.001 789.014 699.101 787.714 696.501 786.114C693.001 784.014 689.601 778.214 695.101 776.014C698.801 774.514 705.101 778.014 707.701 780.414Z" fill="#FF96CE"/>
<path d="M656.101 797.014C657.801 799.014 658.401 801.614 658.801 804.114C660.001 811.214 660.201 818.414 659.501 825.614C659.301 827.814 658.901 830.214 657.101 831.514C655.401 832.814 652.901 832.714 651.001 831.714C649.101 830.714 647.801 828.914 646.601 827.114C642.801 821.014 640.901 813.714 641.201 806.614C641.301 804.214 641.701 801.814 642.801 799.714C645.401 795.214 652.301 792.614 656.101 797.014Z" fill="#FF96CE"/>
<path d="M624.501 806.614C626.801 809.014 627.801 812.314 628.601 815.614C630.301 822.714 631.101 830.114 631.001 837.514C630.901 841.814 629.901 846.914 626.001 848.414C623.901 849.214 621.501 848.814 619.601 847.614C617.701 846.414 616.301 844.614 615.201 842.614C611.001 835.114 611.301 826.014 611.601 817.414C611.801 810.614 616.001 797.714 624.501 806.614Z" fill="#FF96CE"/>
<path d="M550.2 823.814C549.7 831.314 546.6 838.514 541.6 844.114C540.3 845.514 538.8 846.914 537 847.514C535.2 848.114 532.9 847.814 531.7 846.414C530.5 845.014 530.5 842.914 530.8 841.114C531.7 834.214 535 827.914 538.3 821.814C542.2 814.214 550.9 813.214 550.2 823.814Z" fill="#FF96CE"/>
<path d="M168.7 751.514C180.6 752.714 192.7 756.214 201.8 764.014C210.3 771.314 215.6 782.314 215.5 793.514C215.3 804.714 209.5 815.814 200 821.714C188 829.214 172.6 827.914 158.8 824.714C148.7 822.414 138.7 819.114 130.2 813.314C121.6 807.514 114.6 798.914 112.3 788.914C104.6 754.914 144.7 749.214 168.7 751.514Z" fill="url(#paint36_linear)"/>
<path d="M216.6 873.714C185.2 885.114 150.6 886.014 117.9 879.714C107.9 877.814 97.9 875.114 89.5 869.414C81.1 863.714 74.6 854.514 74.4 844.314C74.3 840.614 75.7 836.214 79.3 835.314C82.8 834.414 85.9 837.314 88.5 839.714C102.4 852.814 120.7 860.714 139.6 863.514C158.5 866.314 177.9 864.314 196.4 859.614C203.8 857.714 216.8 852.414 223.7 858.014C231.4 864.114 222.8 871.514 216.6 873.714Z" fill="url(#paint37_linear)"/>
<path d="M178.2 789.914C230 805.914 231.4 846.814 227.8 857.814C224.2 868.814 165.6 887.414 114 872.614C62.3997 857.814 67.6997 808.514 110.2 797.714C152.8 786.814 174.9 788.914 178.2 789.914Z" fill="url(#paint38_linear)"/>
<path d="M181.5 818.114C177.3 820.314 176.1 825.714 175.1 830.314C173.4 837.814 170.8 845.214 167.2 852.014C165 856.214 162.4 860.314 158.4 862.714C154.4 865.114 148.7 865.314 145.4 861.914C142.3 858.714 142.3 853.814 141.7 849.414C141 845.014 138.5 840.014 134.1 839.914C130.6 839.914 128 843.114 124.7 844.414C119.3 846.714 112.8 843.314 109.7 838.414C106.6 833.514 105.8 827.414 105.2 821.614C99.2996 827.314 91.7996 831.414 83.7995 833.314C81.3995 833.914 78.7995 834.214 76.5995 833.114C71.5995 830.514 72.7995 823.214 75.1995 818.114C85.4995 796.214 105.5 779.114 128.7 772.414C151.9 765.714 177.9 769.414 198.3 782.414C212.3 791.314 231.2 808.814 230 827.014C229 843.514 214.7 854.414 203.2 838.314C198.5 831.914 193.4 812.014 181.5 818.114Z" fill="#2E0066"/>
<path d="M123.6 844.314C123.7 835.514 125.6 826.814 129.1 818.814C130.8 815.114 133.3 811.114 137.3 810.414C145.6 808.914 148.2 819.014 147.9 825.114C147.4 834.114 143.8 842.614 139.8 850.514C138.7 852.714 137.5 855.014 135.7 856.714C133.9 858.414 131.4 859.614 129 859.314C123.2 858.314 123.6 848.614 123.6 844.314Z" fill="url(#paint39_linear)"/>
<path d="M118.1 809.514C120.7 804.914 123.8 800.714 128.2 797.714C137 791.714 149.3 791.614 159.5 791.514C170.3 791.414 181.3 791.714 191.6 795.314C200.5 798.414 207.1 804.414 212.2 812.214C214.6 815.814 216.6 819.514 218.7 823.314C225.8 818.214 231 810.214 230.9 801.514C230.3 768.514 182.2 761.114 157.5 758.214C144.7 756.714 132.1 758.914 121.6 769.314C112.3 778.414 108.7 793.614 114.9 805.014C115.9 806.614 116.9 808.114 118.1 809.514Z" fill="#E537A8"/>
<path d="M138.3 760.014C108 765.614 95.2998 775.014 87.0998 782.214C78.9998 789.414 55.9998 819.414 69.8998 830.514C83.7998 841.614 109.8 803.714 112.8 799.114C115.8 794.514 155.2 782.114 155.2 782.114L138.3 760.014Z" fill="#E537A8"/>
<path d="M158.8 764.414C131 775.014 112.4 788.814 111 793.714C109.6 798.714 99.6999 831.114 114.4 836.714C129.1 842.314 135 827.514 139.1 809.514L142.2 797.714L174.5 777.514L158.8 764.414Z" fill="#E537A8"/>
<path d="M142.2 797.714C137.5 812.514 130.2 856.014 146.6 861.314C163 866.614 167.9 827.814 172.7 812.714C177.5 797.714 189.3 796.314 197.2 812.814C205.1 829.314 222.9 861.114 242.7 857.914C262.5 854.614 244.6 830.514 237.8 815.914C231.1 801.414 232 781.314 212.9 773.214C193.7 765.014 150 773.414 142.2 797.714Z" fill="#E537A8"/>
<path d="M151.6 757.714C123.2 755.214 87.2996 763.514 73.2996 768.214C59.2996 772.914 51.6996 781.114 56.2996 791.514C60.8996 801.914 106.1 792.214 106.1 792.214L151.6 757.714Z" fill="#E537A8"/>
<path d="M140.5 845.914C137.2 836.514 138.1 826.014 139.7 816.314C141.1 807.914 142.4 798.514 149.9 793.214C155.4 789.314 164.1 789.314 168.3 794.714C174 801.914 170 811.014 167.9 818.714C165.1 828.414 163.8 839.314 160 848.614C158.6 852.014 156.3 854.914 152.3 855.114C149.3 855.314 146.4 853.914 144.3 851.814C142.4 850.014 141.2 848.014 140.5 845.914Z" fill="#FE50B3"/>
<path d="M114.6 834.314C106.5 830.714 110 809.414 111.9 797.514C113.9 785.514 133.6 777.914 138.2 781.514C142.8 785.114 140.4 793.814 137.1 802.814C133.9 811.814 129.7 841.114 114.6 834.314Z" fill="#FE50B3"/>
<path d="M111 780.014C102.2 776.614 79.8995 789.714 72.6995 804.914C65.4995 820.114 66.8995 827.114 75.3995 829.614C83.8995 832.114 101.6 808.614 106.1 800.314C110.7 791.914 116.3 782.114 111 780.014Z" fill="#FE50B3"/>
<path d="M94.6996 766.814C72.5996 770.514 58.5996 780.014 59.5996 788.014C60.5996 796.014 83.6996 786.514 88.0996 781.114C92.5996 775.714 94.6996 766.814 94.6996 766.814Z" fill="#FE50B3"/>
<path d="M216.6 795.514C200.7 801.214 229.7 859.514 241.9 853.514C254.1 847.514 238.3 827.314 234.5 815.414C230.6 803.514 225.8 792.214 216.6 795.514Z" fill="#FE50B3"/>
<path d="M73.5998 808.614C71.5998 812.314 70.2998 816.714 71.2998 820.814C72.2998 824.914 76.4998 828.414 80.5998 827.514C83.4998 826.914 85.4998 824.414 87.2998 822.114C91.1998 816.814 106.1 797.414 96.5998 792.014C88.4998 787.414 76.6998 802.714 73.5998 808.614Z" fill="#FF96CE"/>
<path d="M65.0999 780.414C63.5999 781.714 62.3999 783.614 62.7999 785.514C63.2999 787.614 65.6999 788.814 67.7999 788.914C70.7999 789.014 73.6999 787.714 76.2999 786.114C79.7999 784.014 83.1999 778.214 77.6999 776.014C73.9999 774.514 67.6999 778.014 65.0999 780.414Z" fill="#FF96CE"/>
<path d="M116.7 797.014C115 799.014 114.4 801.614 114 804.114C112.8 811.214 112.6 818.414 113.3 825.614C113.5 827.814 113.9 830.214 115.7 831.514C117.4 832.814 119.9 832.714 121.8 831.714C123.7 830.714 125 828.914 126.2 827.114C130 821.014 131.9 813.714 131.6 806.614C131.5 804.214 131.1 801.814 130 799.714C127.4 795.214 120.5 792.614 116.7 797.014Z" fill="#FF96CE"/>
<path d="M148.4 806.614C146.1 809.014 145.1 812.314 144.3 815.614C142.6 822.714 141.8 830.114 141.9 837.514C142 841.814 143 846.914 146.9 848.414C149 849.214 151.4 848.814 153.3 847.614C155.2 846.414 156.6 844.614 157.7 842.614C161.9 835.114 161.6 826.014 161.3 817.414C161 810.614 156.9 797.714 148.4 806.614Z" fill="#FF96CE"/>
<path d="M222.7 823.814C223.2 831.314 226.3 838.514 231.3 844.114C232.6 845.514 234.1 846.914 235.9 847.514C237.7 848.114 240 847.814 241.2 846.414C242.4 845.014 242.4 842.914 242.1 841.114C241.2 834.214 237.9 827.914 234.6 821.814C230.6 814.214 221.9 813.214 222.7 823.814Z" fill="#FF96CE"/>
<path d="M495.6 769.414C496.9 757.114 508.6 751.114 508.6 751.114C508.6 751.114 470.1 698.814 463.3 685.114C456.5 671.414 453.8 667.314 440.8 659.914C448.6 663.714 456.3 668.514 459.3 672.114C459.8 672.714 460.1 673.314 460.3 673.814C469.8 689.314 503.9 744.314 513.1 751.014C522.7 757.914 584.8 735.814 623.001 744.314C629.301 745.714 635.001 748.814 639.901 753.014C608.901 736.814 562.1 749.114 532.4 753.514C498.9 758.414 495.6 769.414 495.6 769.414Z" fill="url(#paint40_linear)"/>
<path d="M277.2 769.414C275.9 757.114 264.2 751.114 264.2 751.114C264.2 751.114 302.7 698.814 309.5 685.114C316.3 671.414 319 667.314 332 659.914C324.2 663.714 316.5 668.514 313.5 672.114C313 672.714 312.7 673.314 312.5 673.814C303 689.314 268.9 744.314 259.7 751.014C250.1 757.914 188 735.814 149.8 744.314C143.5 745.714 137.8 748.814 132.9 753.014C163.9 736.814 210.7 749.114 240.4 753.514C274 758.414 277.2 769.414 277.2 769.414Z" fill="url(#paint41_linear)"/>
<path d="M450.8 676.814C444.1 688.514 441 702.114 441.9 715.514C437.9 702.314 441.8 687.314 450.8 676.814Z" fill="#2E0066"/>
<path d="M322.1 676.814C328.8 688.514 331.9 702.114 331 715.514C334.9 702.314 331 687.314 322.1 676.814Z" fill="#2E0066"/>
<path d="M366.8 583.814C358.6 583.814 351.9 577.114 351.9 568.914C351.9 560.714 358.6 554.014 366.8 554.014C375 554.014 381.7 560.714 381.7 568.914C381.7 577.214 375 583.814 366.8 583.814ZM366.8 558.114C360.8 558.114 355.9 563.014 355.9 569.014C355.9 575.014 360.8 579.914 366.8 579.914C372.8 579.914 377.7 575.014 377.7 569.014C377.7 562.914 372.8 558.114 366.8 558.114Z" fill="#FEFEFE"/>
<path d="M403 583.814C394.8 583.814 388.1 577.114 388.1 568.914C388.1 560.714 394.8 554.014 403 554.014C411.2 554.014 417.9 560.714 417.9 568.914C418 577.214 411.3 583.814 403 583.814ZM403 558.114C397 558.114 392.1 563.014 392.1 569.014C392.1 575.014 397 579.914 403 579.914C409 579.914 413.9 575.014 413.9 569.014C413.9 562.914 409 558.114 403 558.114Z" fill="#FEFEFE"/>
<path d="M379.7 571.614C379.3 571.614 378.9 571.514 378.6 571.214C377.7 570.614 377.5 569.314 378.1 568.414L378.4 568.014C379.9 565.814 382.4 564.514 385 564.414C385.1 564.414 385.1 564.414 385.2 564.414C387.8 564.414 390.2 565.614 391.8 567.714C392.5 568.614 392.3 569.914 391.4 570.514C390.5 571.214 389.2 571.014 388.6 570.114C387.8 569.014 386.5 568.414 385.1 568.414C383.7 568.414 382.5 569.114 381.7 570.214L381.4 570.614C381 571.314 380.3 571.614 379.7 571.614Z" fill="#FEFEFE"/>
<path d="M346.4 569.914C346.4 569.914 339.8 551.914 336 538.314C332.2 524.714 329.3 513.414 348.9 511.814C350.5 501.914 359.1 493.514 369.1 492.813C377 492.213 384.9 495.814 392.8 495.114C398 494.614 402.8 492.314 407.8 491.014C412.8 489.614 418.6 489.313 422.8 492.414C426.8 495.414 428.4 500.714 432.3 503.814C435.4 506.214 439.5 506.814 443.3 507.714C447.1 508.614 451.1 510.314 452.9 513.814C455.9 519.714 451 527.914 455 533.214C456.8 535.614 460.1 536.614 461.8 539.114C463.5 541.514 463.3 544.714 462.6 547.514C461.8 550.314 460.5 552.914 459.9 555.814C459.3 558.614 459.6 561.914 461.7 563.914C463.8 565.914 467.9 565.814 469.1 563.114C467.7 565.714 465.4 568.014 462.8 569.314C460.2 570.614 456.8 570.814 454.3 569.214C452.6 568.114 451.4 566.414 449.6 565.514C446.9 564.114 443.7 565.014 440.8 565.814C437.9 566.614 434.5 567.214 432.1 565.414C429.4 563.414 429.4 559.514 429.5 556.214C429.6 552.914 429.4 548.914 426.7 547.114C424.3 545.514 421.2 546.114 418.3 546.214C411.6 546.314 404.9 542.214 402 536.214C396.6 542.214 389.1 545.514 381 546.014C372.9 546.514 364.8 544.914 356.8 543.314C353.1 552.414 350 560.814 346.4 569.914Z" fill="url(#paint42_linear)"/>
<path d="M415 541.914L423.101 569.614L429.201 538.714L415 541.914Z" fill="url(#paint43_linear)"/>
<path d="M583 763.914C594.601 760.814 606.401 759.214 615.201 758.114C617.201 757.914 619.201 757.714 621.301 757.714H621.201C649.601 755.214 685.501 763.514 699.501 768.214C712.101 772.414 719.601 779.514 717.501 788.514C716.901 784.214 714.401 780.014 711.101 777.114C705.901 772.614 699.101 770.514 692.401 768.714C674.101 763.714 655.501 759.914 636.501 759.114C627.601 758.714 618.501 758.714 609.701 759.914C600.901 761.314 592 762.614 583 763.914Z" fill="url(#paint44_linear)"/>
<path d="M189.8 763.914C178.2 760.814 166.4 759.214 157.6 758.114C155.6 757.914 153.6 757.714 151.5 757.714H151.6C123.2 755.214 87.2999 763.514 73.2999 768.214C60.6999 772.414 53.1999 779.514 55.2999 788.514C55.8999 784.214 58.3999 780.014 61.6999 777.114C66.8999 772.614 73.6999 770.514 80.3999 768.714C98.6999 763.714 117.3 759.914 136.3 759.114C145.2 758.714 154.3 758.714 163.1 759.914C171.9 761.314 180.9 762.614 189.8 763.914Z" fill="url(#paint45_linear)"/>
<path d="M337.8 519.714C335.6 522.414 335.1 526.114 335.5 529.614C336 533.014 337.4 536.314 338.9 539.414C337.9 535.214 338.4 530.614 340.2 526.614C340.2 529.614 340.2 532.514 340.2 535.514C340.5 532.614 341.8 529.714 343.6 527.414C342.2 536.214 342.6 545.314 344.6 553.914C347.2 546.814 349.4 539.614 351.2 532.314C349.6 534.314 348 536.314 346.4 538.314C347.1 533.014 348.2 527.714 349.7 522.514C346.9 522.114 344.1 522.414 341.4 523.414C344.4 521.914 346.3 519.214 349.8 518.014C346 515.714 340.8 515.914 337.8 519.714Z" fill="url(#paint46_linear)"/>
<path d="M352.3 515.214C353.9 512.114 357 509.814 360.5 509.014C358.9 511.414 357.4 513.914 355.8 516.314C360.6 513.414 366 511.514 371.6 510.714C366.6 514.314 361.6 518.014 356.6 521.614C363.7 515.114 374.2 512.514 383.5 515.114C387.4 516.214 391.6 518.114 395.2 516.214C397.6 514.914 399.1 512.114 401.6 511.114C405 509.714 408.7 511.914 411.7 514.114C414.6 516.314 418 518.814 421.6 518.114C423.4 517.714 425 516.614 426.8 515.914C431.5 514.314 437.2 517.414 438.3 522.214C438.8 516.814 435 511.314 429.8 509.914C427.6 509.314 425 509.214 423.5 507.514C421.6 505.314 422.6 501.914 421.8 499.114C420.7 495.714 416.8 493.914 413.3 494.214C409.8 494.514 406.6 496.414 403.8 498.614C401 500.814 398.4 503.214 395.2 504.814C388.1 508.314 379.7 507.014 372 505.514C378.1 502.914 385.2 502.614 391.5 504.414C384.8 500.714 376.8 499.514 369.4 501.014C372.6 499.814 375.7 498.714 378.9 497.514C372.4 493.914 367.6 494.914 362 499.214C356 504.014 355.4 509.214 352.3 515.214Z" fill="url(#paint47_linear)"/>
<path d="M374 523.114C379.2 523.414 384.3 525.514 389.4 524.514C393 523.814 396.2 521.814 399.8 521.114C406.6 519.814 414 524.014 416.3 530.514C412.1 527.214 407.3 523.814 402 524.514C397.7 525.114 394.4 528.314 390.7 530.514C387.1 532.814 381.9 534.114 378.7 531.214C384.2 534.014 390.7 534.714 396.7 533.014C389.1 536.714 379.9 537.014 372 533.914C376.7 537.214 382.2 539.314 387.9 540.014C378.6 542.514 368.1 540.314 360.5 534.414C364.6 533.414 368.6 532.414 372.7 531.414C368.5 531.114 364.3 530.914 360.2 530.614C365.5 529.214 370.8 527.814 376.1 526.414C370.5 527.914 364.6 525.814 358.9 526.714C362.7 526.114 366.2 523.714 370.1 523.114C371.6 523.014 372.8 523.014 374 523.114Z" fill="url(#paint48_linear)"/>
<path d="M449.601 527.314C449.101 529.914 447.901 532.414 449.001 534.714C450.501 537.714 454.901 537.314 457.601 539.314C460.101 541.114 460.501 544.714 459.701 547.714C459.001 550.714 457.401 553.414 456.701 556.414C455.901 559.414 456.201 563.014 458.601 564.914C455.301 564.414 452.601 561.514 452.201 558.214C451.901 556.214 452.501 554.214 452.901 552.214C453.301 550.214 453.501 548.014 452.701 546.214C451.901 544.314 449.601 543.014 447.701 543.814C449.701 544.414 450.601 546.814 450.301 548.914C450.001 551.014 449.001 552.814 448.401 554.814C447.801 556.814 447.701 559.214 449.201 560.714C446.401 560.614 445.001 557.114 445.001 554.314C445.101 551.514 445.701 548.414 444.201 546.014C443.201 544.414 441.501 543.514 440.001 542.314C435.901 539.114 434.001 533.414 435.101 528.314C435.401 532.414 437.701 536.414 441.101 538.814C439.001 536.014 438.201 532.314 438.901 528.814C439.701 532.414 441.701 535.814 444.601 538.114C442.401 534.514 441.301 530.314 441.501 526.014C442.701 527.814 443.801 529.614 445.001 531.414C444.101 530.014 445.101 527.314 445.201 525.814C445.301 522.714 444.901 519.914 443.401 517.114C443.701 517.714 446.401 518.614 447.101 519.314C448.301 520.514 449.101 522.014 449.501 523.614C449.901 524.814 449.801 526.014 449.601 527.314Z" fill="url(#paint49_linear)"/>
<path d="M403.1 501.714C395.8 509.014 384.2 511.714 374.4 508.314C379.4 511.514 384.9 512.714 390.6 511.014C396.2 509.314 400.6 507.114 403.1 501.714Z" fill="#F8E8D8"/>
<path d="M341.9 518.614C338.6 519.614 336.5 523.314 337.1 526.614C338 523.514 339.4 520.814 341.9 518.614Z" fill="#F8E8D8"/>
<path d="M456.8 541.614C457.9 543.714 457.3 546.314 456.4 548.614C455.6 550.814 454.6 553.214 455 555.514C453.1 551.714 455.5 546.714 453.4 543.114C452.4 541.414 450.6 540.314 449.1 539.114C447.6 537.914 446.1 536.114 446.3 534.114C445.8 538.714 455.1 538.114 456.8 541.614Z" fill="#F8E8D8"/>
<path d="M394.2 523.814C388.9 527.114 381.9 527.614 376.3 524.914C378.9 527.214 381.7 528.514 385.2 528.314C388.7 528.114 391.9 526.414 394.2 523.814Z" fill="#F8E8D8"/>
</g>
<defs>
<linearGradient id="paint0_linear" x1="-2.85899" y1="11.6066" x2="930.31" y2="346.558" gradientUnits="userSpaceOnUse">
<stop stop-color="#562F88"/>
<stop offset="0.3334" stop-color="#4A1A7E"/>
<stop offset="0.7255" stop-color="#3F0775"/>
<stop offset="1" stop-color="#3B0072"/>
</linearGradient>
<linearGradient id="paint1_linear" x1="859.434" y1="371.072" x2="-153.721" y2="-63.2433" gradientUnits="userSpaceOnUse">
<stop stop-color="#562F88"/>
<stop offset="0.3334" stop-color="#4A1A7E"/>
<stop offset="0.7255" stop-color="#3F0775"/>
<stop offset="1" stop-color="#3B0072"/>
</linearGradient>
<linearGradient id="paint2_linear" x1="381.875" y1="194.745" x2="-274.936" y2="-46.664" gradientUnits="userSpaceOnUse">
<stop stop-color="#FF209A"/>
<stop offset="0.0160477" stop-color="#FB209B" stop-opacity="0.984"/>
<stop offset="0.2784" stop-color="#BB1FA6" stop-opacity="0.7216"/>
<stop offset="0.5172" stop-color="#891DB0" stop-opacity="0.4828"/>
<stop offset="0.7246" stop-color="#641DB6" stop-opacity="0.2754"/>
<stop offset="0.8926" stop-color="#4E1CBB" stop-opacity="0.1074"/>
<stop offset="1" stop-color="#461CBC" stop-opacity="0"/>
</linearGradient>
<linearGradient id="paint3_linear" x1="454.681" y1="163.331" x2="1024.12" y2="3.34927" gradientUnits="userSpaceOnUse">
<stop stop-color="#FF209A"/>
<stop offset="0.0160477" stop-color="#FB209B" stop-opacity="0.984"/>
<stop offset="0.2784" stop-color="#BB1FA6" stop-opacity="0.7216"/>
<stop offset="0.5172" stop-color="#891DB0" stop-opacity="0.4828"/>
<stop offset="0.7246" stop-color="#641DB6" stop-opacity="0.2754"/>
<stop offset="0.8926" stop-color="#4E1CBB" stop-opacity="0.1074"/>
<stop offset="1" stop-color="#461CBC" stop-opacity="0"/>
</linearGradient>
<radialGradient id="paint4_radial" cx="0" cy="0" r="1" gradientUnits="userSpaceOnUse" gradientTransform="translate(727.056 159.071) scale(14.1465 14.1772)">
<stop offset="0.6979" stop-color="#000024"/>
<stop offset="0.7798" stop-color="#020226" stop-opacity="0.729"/>
<stop offset="0.8213" stop-color="#0A0A2D" stop-opacity="0.5914"/>
<stop offset="0.8539" stop-color="#171738" stop-opacity="0.4838"/>
<stop offset="0.8817" stop-color="#2A2A48" stop-opacity="0.3917"/>
<stop offset="0.9065" stop-color="#43435D" stop-opacity="0.3095"/>
<stop offset="0.9292" stop-color="#616177" stop-opacity="0.2345"/>
<stop offset="0.9502" stop-color="#858596" stop-opacity="0.1647"/>
<stop offset="0.97" stop-color="#AFAFBA" stop-opacity="0.0992475"/>
<stop offset="0.9881" stop-color="#DCDCE1" stop-opacity="0.0393911"/>
<stop offset="1" stop-color="white" stop-opacity="0"/>
</radialGradient>
<linearGradient id="paint5_linear" x1="705.419" y1="148.793" x2="734.488" y2="148.793" gradientUnits="userSpaceOnUse">
<stop stop-color="#68BFC6"/>
<stop offset="1" stop-color="white" stop-opacity="0"/>
</linearGradient>
<radialGradient id="paint6_radial" cx="0" cy="0" r="1" gradientUnits="userSpaceOnUse" gradientTransform="translate(530.421 51.5487) scale(25.074 25.1283)">
<stop offset="0.6979" stop-color="#000024"/>
<stop offset="0.7798" stop-color="#020226" stop-opacity="0.729"/>
<stop offset="0.8213" stop-color="#0A0A2D" stop-opacity="0.5914"/>
<stop offset="0.8539" stop-color="#171738" stop-opacity="0.4838"/>
<stop offset="0.8817" stop-color="#2A2A48" stop-opacity="0.3917"/>
<stop offset="0.9065" stop-color="#43435D" stop-opacity="0.3095"/>
<stop offset="0.9292" stop-color="#616177" stop-opacity="0.2345"/>
<stop offset="0.9502" stop-color="#858596" stop-opacity="0.1647"/>
<stop offset="0.97" stop-color="#AFAFBA" stop-opacity="0.0992475"/>
<stop offset="0.9881" stop-color="#DCDCE1" stop-opacity="0.0393911"/>
<stop offset="1" stop-color="white" stop-opacity="0"/>
</radialGradient>
<linearGradient id="paint7_linear" x1="492.071" y1="33.3319" x2="543.593" y2="33.3319" gradientUnits="userSpaceOnUse">
<stop stop-color="#68BFC6"/>
<stop offset="1" stop-color="white" stop-opacity="0"/>
</linearGradient>
<linearGradient id="paint8_linear" x1="668.769" y1="144.688" x2="668.769" y2="284.081" gradientUnits="userSpaceOnUse">
<stop stop-color="white"/>
<stop offset="1" stop-color="white" stop-opacity="0"/>
</linearGradient>
<linearGradient id="paint9_linear" x1="227.498" y1="7.98228" x2="233.679" y2="55.9544" gradientUnits="userSpaceOnUse">
<stop stop-color="white"/>
<stop offset="1" stop-color="white" stop-opacity="0"/>
</linearGradient>
<linearGradient id="paint10_linear" x1="390.351" y1="531.876" x2="510.413" y2="986.667" gradientUnits="userSpaceOnUse">
<stop stop-color="#7F20CC"/>
<stop offset="0.3645" stop-color="#641EC4" stop-opacity="0.6355"/>
<stop offset="0.7515" stop-color="#4E1DBE" stop-opacity="0.2485"/>
<stop offset="1" stop-color="#461CBC" stop-opacity="0"/>
</linearGradient>
<linearGradient id="paint11_linear" x1="303.943" y1="529.965" x2="-152.354" y2="1007.59" gradientUnits="userSpaceOnUse">
<stop stop-color="#FF209A"/>
<stop offset="0.3363" stop-color="#B71EA7" stop-opacity="0.6637"/>
<stop offset="0.6502" stop-color="#7A1DB2" stop-opacity="0.3498"/>
<stop offset="0.8794" stop-color="#541CB9" stop-opacity="0.1206"/>
<stop offset="1" stop-color="#461CBC" stop-opacity="0"/>
</linearGradient>
<radialGradient id="paint12_radial" cx="0" cy="0" r="1" gradientUnits="userSpaceOnUse" gradientTransform="translate(76.3179 462.194) scale(7.07021 7.19928)">
<stop offset="0.6979" stop-color="#000024"/>
<stop offset="0.7798" stop-color="#020226" stop-opacity="0.729"/>
<stop offset="0.8213" stop-color="#0A0A2D" stop-opacity="0.5914"/>
<stop offset="0.8539" stop-color="#171738" stop-opacity="0.4838"/>
<stop offset="0.8817" stop-color="#2A2A48" stop-opacity="0.3917"/>
<stop offset="0.9065" stop-color="#43435D" stop-opacity="0.3095"/>
<stop offset="0.9292" stop-color="#616177" stop-opacity="0.2345"/>
<stop offset="0.9502" stop-color="#858596" stop-opacity="0.1647"/>
<stop offset="0.97" stop-color="#AFAFBA" stop-opacity="0.0992475"/>
<stop offset="0.9881" stop-color="#DCDCE1" stop-opacity="0.0393911"/>
<stop offset="1" stop-color="white" stop-opacity="0"/>
</radialGradient>
<linearGradient id="paint13_linear" x1="65.5053" y1="456.977" x2="80.0334" y2="456.977" gradientUnits="userSpaceOnUse">
<stop stop-color="#68BFC6"/>
<stop offset="1" stop-color="white" stop-opacity="0"/>
</linearGradient>
<radialGradient id="paint14_radial" cx="0" cy="0" r="1" gradientUnits="userSpaceOnUse" gradientTransform="translate(102.487 709.275) scale(11.7663 11.9811)">
<stop offset="0.6979" stop-color="#000024"/>
<stop offset="0.7798" stop-color="#020226" stop-opacity="0.729"/>
<stop offset="0.8213" stop-color="#0A0A2D" stop-opacity="0.5914"/>
<stop offset="0.8539" stop-color="#171738" stop-opacity="0.4838"/>
<stop offset="0.8817" stop-color="#2A2A48" stop-opacity="0.3917"/>
<stop offset="0.9065" stop-color="#43435D" stop-opacity="0.3095"/>
<stop offset="0.9292" stop-color="#616177" stop-opacity="0.2345"/>
<stop offset="0.9502" stop-color="#858596" stop-opacity="0.1647"/>
<stop offset="0.97" stop-color="#AFAFBA" stop-opacity="0.0992475"/>
<stop offset="0.9881" stop-color="#DCDCE1" stop-opacity="0.0393911"/>
<stop offset="1" stop-color="white" stop-opacity="0"/>
</radialGradient>
<linearGradient id="paint15_linear" x1="84.4884" y1="700.59" x2="108.667" y2="700.59" gradientUnits="userSpaceOnUse">
<stop stop-color="#68BFC6"/>
<stop offset="1" stop-color="white" stop-opacity="0"/>
</linearGradient>
<linearGradient id="paint16_linear" x1="705.641" y1="565.803" x2="705.641" y2="646.467" gradientUnits="userSpaceOnUse">
<stop stop-color="white"/>
<stop offset="1" stop-color="white" stop-opacity="0"/>
</linearGradient>
<linearGradient id="paint17_linear" x1="40.1517" y1="544.268" x2="-6.45632" y2="557.428" gradientUnits="userSpaceOnUse">
<stop stop-color="white"/>
<stop offset="1" stop-color="white" stop-opacity="0"/>
</linearGradient>
<linearGradient id="paint18_linear" x1="374.37" y1="921.271" x2="371.215" y2="787.2" gradientUnits="userSpaceOnUse">
<stop stop-color="#AD009C"/>
<stop offset="0.0751187" stop-color="#8E008F"/>
<stop offset="0.1658" stop-color="#700082"/>
<stop offset="0.2663" stop-color="#570078"/>
<stop offset="0.3788" stop-color="#440070"/>
<stop offset="0.5099" stop-color="#37006A"/>
<stop offset="0.6768" stop-color="#2F0067"/>
<stop offset="1" stop-color="#2D0066"/>
</linearGradient>
<linearGradient id="paint19_linear" x1="686.401" y1="752.851" x2="751.914" y2="752.851" gradientUnits="userSpaceOnUse">
<stop stop-color="#9E00FB"/>
<stop offset="1" stop-color="#F9005B"/>
</linearGradient>
<linearGradient id="paint20_linear" x1="-3" y1="753.36" x2="58.3001" y2="753.36" gradientUnits="userSpaceOnUse">
<stop offset="0.302083" stop-color="#9B01FF"/>
<stop offset="1" stop-color="#2089FF"/>
</linearGradient>
<linearGradient id="paint21_linear" x1="264.721" y1="651.426" x2="532.591" y2="660.299" gradientUnits="userSpaceOnUse">
<stop stop-color="#DC2670"/>
<stop offset="0.0293024" stop-color="#CB2272"/>
<stop offset="0.1107" stop-color="#A11978"/>
<stop offset="0.1968" stop-color="#7D117D"/>
<stop offset="0.2868" stop-color="#600B81"/>
<stop offset="0.382" stop-color="#490684"/>
<stop offset="0.4848" stop-color="#390386"/>
<stop offset="0.6007" stop-color="#300188"/>
<stop offset="0.7574" stop-color="#2D0088"/>
<stop offset="0.7833" stop-color="#2D0688"/>
<stop offset="0.8162" stop-color="#2D1588"/>
<stop offset="0.8529" stop-color="#2D2F88"/>
<stop offset="0.8923" stop-color="#2D5488"/>
<stop offset="0.934" stop-color="#2D8288"/>
<stop offset="0.9768" stop-color="#2DBA88"/>
<stop offset="1" stop-color="#2DDC88"/>
</linearGradient>
<linearGradient id="paint22_linear" x1="385" y1="574.264" x2="518.043" y2="574.264" gradientUnits="userSpaceOnUse">
<stop stop-color="#9E00FB"/>
<stop offset="1" stop-color="#F9005B"/>
</linearGradient>
<linearGradient id="paint23_linear" x1="261.936" y1="575.999" x2="385" y2="575.999" gradientUnits="userSpaceOnUse">
<stop offset="0.302083" stop-color="#9B01FF"/>
<stop offset="1" stop-color="#2089FF"/>
</linearGradient>
<linearGradient id="paint24_linear" x1="390.442" y1="648.516" x2="381.088" y2="1007.59" gradientUnits="userSpaceOnUse">
<stop stop-color="#FF0098"/>
<stop offset="0.1439" stop-color="#B70087"/>
<stop offset="0.2006" stop-color="#92007E"/>
<stop offset="0.2527" stop-color="#770078"/>
<stop offset="0.3075" stop-color="#620073"/>
<stop offset="0.3432" stop-color="#5A0071"/>
<stop offset="0.453" stop-color="#48006D"/>
<stop offset="0.5964" stop-color="#390069"/>
<stop offset="0.7621" stop-color="#300067"/>
<stop offset="1" stop-color="#2D0066"/>
</linearGradient>
<linearGradient id="paint25_linear" x1="332.327" y1="851.792" x2="323.589" y2="719.746" gradientUnits="userSpaceOnUse">
<stop stop-color="#AD009C"/>
<stop offset="0.0751187" stop-color="#8E008F"/>
<stop offset="0.1658" stop-color="#700082"/>
<stop offset="0.2663" stop-color="#570078"/>
<stop offset="0.3788" stop-color="#440070"/>
<stop offset="0.5099" stop-color="#37006A"/>
<stop offset="0.6768" stop-color="#2F0067"/>
<stop offset="1" stop-color="#2D0066"/>
</linearGradient>
<linearGradient id="paint26_linear" x1="446.268" y1="845.771" x2="438.434" y2="727.388" gradientUnits="userSpaceOnUse">
<stop stop-color="#AD009C"/>
<stop offset="0.0751187" stop-color="#8E008F"/>
<stop offset="0.1658" stop-color="#700082"/>
<stop offset="0.2663" stop-color="#570078"/>
<stop offset="0.3788" stop-color="#440070"/>
<stop offset="0.5099" stop-color="#37006A"/>
<stop offset="0.6768" stop-color="#2F0067"/>
<stop offset="1" stop-color="#2D0066"/>
</linearGradient>
<linearGradient id="paint27_linear" x1="325.195" y1="579.925" x2="345.416" y2="579.925" gradientUnits="userSpaceOnUse">
<stop stop-color="#9E00FB"/>
<stop offset="1" stop-color="#F9005B"/>
</linearGradient>
<linearGradient id="paint28_linear" x1="424.2" y1="579.925" x2="444.421" y2="579.925" gradientUnits="userSpaceOnUse">
<stop stop-color="#9E00FB"/>
<stop offset="1" stop-color="#F9005B"/>
</linearGradient>
<linearGradient id="paint29_linear" x1="390.122" y1="575.223" x2="379.99" y2="754.821" gradientUnits="userSpaceOnUse">
<stop stop-color="#FF0098"/>
<stop offset="0.0172901" stop-color="#F50096"/>
<stop offset="0.1083" stop-color="#C7008B"/>
<stop offset="0.205" stop-color="#9D0081"/>
<stop offset="0.306" stop-color="#7B0078"/>
<stop offset="0.4124" stop-color="#5E0072"/>
<stop offset="0.5261" stop-color="#48006D"/>
<stop offset="0.6507" stop-color="#390069"/>
<stop offset="0.7941" stop-color="#300067"/>
<stop offset="1" stop-color="#2D0066"/>
</linearGradient>
<linearGradient id="paint30_linear" x1="385.909" y1="678.701" x2="387.504" y2="559.888" gradientUnits="userSpaceOnUse">
<stop stop-color="#FF0098"/>
<stop offset="0.0172901" stop-color="#F50096"/>
<stop offset="0.1083" stop-color="#C7008B"/>
<stop offset="0.205" stop-color="#9D0081"/>
<stop offset="0.306" stop-color="#7B0078"/>
<stop offset="0.4124" stop-color="#5E0072"/>
<stop offset="0.5261" stop-color="#48006D"/>
<stop offset="0.6507" stop-color="#390069"/>
<stop offset="0.7941" stop-color="#300067"/>
<stop offset="1" stop-color="#2D0066"/>
</linearGradient>
<linearGradient id="paint31_linear" x1="387" y1="643.364" x2="461.485" y2="643.364" gradientUnits="userSpaceOnUse">
<stop stop-color="#9E00FB"/>
<stop offset="1" stop-color="#F9005B"/>
</linearGradient>
<linearGradient id="paint32_linear" x1="316.762" y1="644.24" x2="385.701" y2="644.24" gradientUnits="userSpaceOnUse">
<stop offset="0.302083" stop-color="#9B01FF"/>
<stop offset="1" stop-color="#2089FF"/>
</linearGradient>
<linearGradient id="paint33_linear" x1="227.482" y1="643.73" x2="216.557" y2="1063.11" gradientUnits="userSpaceOnUse">
<stop stop-color="#FF0098"/>
<stop offset="0.1439" stop-color="#B70087"/>
<stop offset="0.2006" stop-color="#92007E"/>
<stop offset="0.2527" stop-color="#770078"/>
<stop offset="0.3075" stop-color="#620073"/>
<stop offset="0.3432" stop-color="#5A0071"/>
<stop offset="0.3819" stop-color="#48006D"/>
<stop offset="0.4324" stop-color="#390069"/>
<stop offset="0.4908" stop-color="#300067"/>
<stop offset="0.5747" stop-color="#2D0066"/>
</linearGradient>
<linearGradient id="paint34_linear" x1="551.022" y1="652.158" x2="540.096" y2="1071.54" gradientUnits="userSpaceOnUse">
<stop stop-color="#FF0098"/>
<stop offset="0.1439" stop-color="#B70087"/>
<stop offset="0.2006" stop-color="#92007E"/>
<stop offset="0.2527" stop-color="#770078"/>
<stop offset="0.3075" stop-color="#620073"/>
<stop offset="0.3432" stop-color="#5A0071"/>
<stop offset="0.3819" stop-color="#48006D"/>
<stop offset="0.4324" stop-color="#390069"/>
<stop offset="0.4908" stop-color="#300067"/>
<stop offset="0.5747" stop-color="#2D0066"/>
</linearGradient>
<linearGradient id="paint35_linear" x1="661.497" y1="789.167" x2="557.357" y2="789.167" gradientUnits="userSpaceOnUse">
<stop stop-color="#AD009C"/>
<stop offset="0.0486883" stop-color="#9D0095"/>
<stop offset="0.168" stop-color="#7B0087"/>
<stop offset="0.2955" stop-color="#5E007B"/>
<stop offset="0.4318" stop-color="#480072"/>
<stop offset="0.5811" stop-color="#39006B"/>
<stop offset="0.7531" stop-color="#300067"/>
<stop offset="1" stop-color="#2D0066"/>
</linearGradient>
<linearGradient id="paint36_linear" x1="111.333" y1="789.167" x2="215.474" y2="789.167" gradientUnits="userSpaceOnUse">
<stop stop-color="#AD009C"/>
<stop offset="0.0486883" stop-color="#9D0095"/>
<stop offset="0.168" stop-color="#7B0087"/>
<stop offset="0.2955" stop-color="#5E007B"/>
<stop offset="0.4318" stop-color="#480072"/>
<stop offset="0.5811" stop-color="#39006B"/>
<stop offset="0.7531" stop-color="#300067"/>
<stop offset="1" stop-color="#2D0066"/>
</linearGradient>
<linearGradient id="paint37_linear" x1="74.395" y1="859.998" x2="226.745" y2="859.998" gradientUnits="userSpaceOnUse">
<stop offset="0.302083" stop-color="#9B01FF"/>
<stop offset="1" stop-color="#2089FF"/>
</linearGradient>
<linearGradient id="paint38_linear" x1="156.369" y1="886.63" x2="142.275" y2="702.804" gradientUnits="userSpaceOnUse">
<stop stop-color="#AD009C"/>
<stop offset="0.0486883" stop-color="#9D0095"/>
<stop offset="0.168" stop-color="#7B0087"/>
<stop offset="0.2955" stop-color="#5E007B"/>
<stop offset="0.4318" stop-color="#480072"/>
<stop offset="0.5811" stop-color="#39006B"/>
<stop offset="0.7531" stop-color="#300067"/>
<stop offset="1" stop-color="#2D0066"/>
</linearGradient>
<linearGradient id="paint39_linear" x1="147.98" y1="834.697" x2="123.607" y2="834.697" gradientUnits="userSpaceOnUse">
<stop stop-color="#AD009C"/>
<stop offset="0.0486883" stop-color="#9D0095"/>
<stop offset="0.168" stop-color="#7B0087"/>
<stop offset="0.2955" stop-color="#5E007B"/>
<stop offset="0.4318" stop-color="#480072"/>
<stop offset="0.5811" stop-color="#39006B"/>
<stop offset="0.7531" stop-color="#300067"/>
<stop offset="1" stop-color="#2D0066"/>
</linearGradient>
<linearGradient id="paint40_linear" x1="440.8" y1="714.664" x2="656.044" y2="714.664" gradientUnits="userSpaceOnUse">
<stop stop-color="#9E00FB"/>
<stop offset="1" stop-color="#F9005B"/>
</linearGradient>
<linearGradient id="paint41_linear" x1="132.9" y1="716.068" x2="332" y2="716.068" gradientUnits="userSpaceOnUse">
<stop offset="0.302083" stop-color="#9B01FF"/>
<stop offset="1" stop-color="#2089FF"/>
</linearGradient>
<linearGradient id="paint42_linear" x1="359.611" y1="601.477" x2="439.571" y2="486.639" gradientUnits="userSpaceOnUse">
<stop stop-color="#000626"/>
<stop offset="0.0928313" stop-color="#0A0535"/>
<stop offset="0.2675" stop-color="#1A034B"/>
<stop offset="0.4599" stop-color="#25015A"/>
<stop offset="0.6817" stop-color="#2B0063"/>
<stop offset="1" stop-color="#2D0066"/>
</linearGradient>
<linearGradient id="paint43_linear" x1="378.219" y1="614.434" x2="458.18" y2="499.595" gradientUnits="userSpaceOnUse">
<stop stop-color="#000626"/>
<stop offset="0.0928313" stop-color="#0A0535"/>
<stop offset="0.2675" stop-color="#1A034B"/>
<stop offset="0.4599" stop-color="#25015A"/>
<stop offset="0.6817" stop-color="#2B0063"/>
<stop offset="1" stop-color="#2D0066"/>
</linearGradient>
<linearGradient id="paint44_linear" x1="583" y1="772.885" x2="728.785" y2="772.885" gradientUnits="userSpaceOnUse">
<stop stop-color="#9E00FB"/>
<stop offset="1" stop-color="#F9005B"/>
</linearGradient>
<linearGradient id="paint45_linear" x1="54.9492" y1="772.885" x2="200.734" y2="772.885" gradientUnits="userSpaceOnUse">
<stop stop-color="#9E00FB"/>
<stop offset="1" stop-color="#F9005B"/>
</linearGradient>
<linearGradient id="paint46_linear" x1="271.978" y1="453.946" x2="375.988" y2="567.249" gradientUnits="userSpaceOnUse">
<stop stop-color="#FF0098"/>
<stop offset="0.0172901" stop-color="#F50096"/>
<stop offset="0.1083" stop-color="#C7008B"/>
<stop offset="0.205" stop-color="#9D0081"/>
<stop offset="0.306" stop-color="#7B0078"/>
<stop offset="0.4124" stop-color="#5E0072"/>
<stop offset="0.5261" stop-color="#48006D"/>
<stop offset="0.6507" stop-color="#390069"/>
<stop offset="0.7941" stop-color="#300067"/>
<stop offset="1" stop-color="#2D0066"/>
</linearGradient>
<linearGradient id="paint47_linear" x1="227.825" y1="334.503" x2="465.447" y2="593.354" gradientUnits="userSpaceOnUse">
<stop stop-color="#FF0098"/>
<stop offset="0.0172901" stop-color="#F50096"/>
<stop offset="0.1083" stop-color="#C7008B"/>
<stop offset="0.205" stop-color="#9D0081"/>
<stop offset="0.306" stop-color="#7B0078"/>
<stop offset="0.4124" stop-color="#5E0072"/>
<stop offset="0.5261" stop-color="#48006D"/>
<stop offset="0.6507" stop-color="#390069"/>
<stop offset="0.7941" stop-color="#300067"/>
<stop offset="1" stop-color="#2D0066"/>
</linearGradient>
<linearGradient id="paint48_linear" x1="285.856" y1="419.938" x2="429.507" y2="576.423" gradientUnits="userSpaceOnUse">
<stop stop-color="#FF0098"/>
<stop offset="0.0172901" stop-color="#F50096"/>
<stop offset="0.1083" stop-color="#C7008B"/>
<stop offset="0.205" stop-color="#9D0081"/>
<stop offset="0.306" stop-color="#7B0078"/>
<stop offset="0.4124" stop-color="#5E0072"/>
<stop offset="0.5261" stop-color="#48006D"/>
<stop offset="0.6507" stop-color="#390069"/>
<stop offset="0.7941" stop-color="#300067"/>
<stop offset="1" stop-color="#2D0066"/>
</linearGradient>
<linearGradient id="paint49_linear" x1="339.572" y1="422.471" x2="496.512" y2="593.433" gradientUnits="userSpaceOnUse">
<stop stop-color="#FF0098"/>
<stop offset="0.0172901" stop-color="#F50096"/>
<stop offset="0.1083" stop-color="#C7008B"/>
<stop offset="0.205" stop-color="#9D0081"/>
<stop offset="0.306" stop-color="#7B0078"/>
<stop offset="0.4124" stop-color="#5E0072"/>
<stop offset="0.5261" stop-color="#48006D"/>
<stop offset="0.6507" stop-color="#390069"/>
<stop offset="0.7941" stop-color="#300067"/>
<stop offset="1" stop-color="#2D0066"/>
</linearGradient>
<clipPath id="clip0">
<rect width="746" height="899.001" fill="white"/>
</clipPath>
</defs>
</svg>
