<svg width="70" height="24" viewBox="0 0 70 24" fill="none" xmlns="http://www.w3.org/2000/svg">
<g clip-path="url(#clip0)">
<path d="M11.0996 8.66685L0 2.16211V21.6584L3.69988 23.8207V17.3249L11.0996 21.6584V8.66685ZM7.39973 15.1626L3.69988 13.0004V8.66685L7.39973 10.8291V15.1626Z" fill="#575A5F"/>
<path d="M11.0996 0L18.4906 4.3335V17.3251L14.7995 15.1628V6.49578L11.0996 4.3335V0Z" fill="#575A5F"/>
<path d="M29.7168 20.2938V6.13867H36.1686C38.6897 6.13867 40.289 7.996 40.289 10.6694C40.289 13.3429 38.6897 15.2002 36.1415 15.2002H32.6716V20.2938H29.7168ZM32.6716 12.4986H35.7891C36.6565 12.4986 37.2258 12.0203 37.2258 11.0916V10.191C37.2258 9.29049 36.6837 8.78398 35.7891 8.78398H32.6716V12.4986Z" fill="#575A5F"/>
<path d="M45.9543 20.2951C43.9754 20.2951 42.9182 19.2257 42.9182 17.1995V11.9933H41.4814V9.65754H42.1863C42.9724 9.65754 43.1893 9.26362 43.1893 8.53191V6.78711H45.7916V9.65754H47.8248V11.9933H45.7916V17.9593H47.6622V20.2951H45.9543Z" fill="#575A5F"/>
<path d="M57.4211 20.2943C56.391 20.2943 55.6319 19.5626 55.4693 18.437H55.3608C55.0355 19.8159 53.9241 20.5476 52.3518 20.5476C50.2916 20.5476 49.1802 19.2812 49.1802 17.452C49.1802 15.2007 50.8608 14.1313 53.5717 14.1313H55.1982V13.4559C55.1982 12.4147 54.7102 11.7674 53.4904 11.7674C52.3518 11.7674 51.7283 12.3865 51.2946 13.0338L49.5868 11.4578C50.4 10.1915 51.5657 9.43164 53.7343 9.43164C56.6349 9.43164 58.0988 10.8106 58.0988 13.3152V17.9585H59.0476V20.2943H57.4211ZM55.1711 17.058V15.7916H53.7615C52.65 15.7916 52.0536 16.2138 52.0536 16.9736V17.2832C52.0536 18.043 52.5416 18.4088 53.409 18.4088C54.3579 18.437 55.1711 18.043 55.1711 17.058Z" fill="#575A5F"/>
<path d="M60.9458 5.29492H63.8464V11.4579H63.9548C64.3343 10.3323 65.1747 9.40357 66.8011 9.40357C68.8886 9.40357 70 10.9514 70 13.6248V20.2944H67.1267V13.8781C67.1267 12.5273 66.747 11.8519 65.6898 11.8519C64.7409 11.8519 63.8464 12.3585 63.8464 13.3997V20.2944H60.9458V5.29492Z" fill="#575A5F"/>
</g>
<defs>
<clipPath id="clip0">
<rect width="70" height="23.8298" fill="white"/>
</clipPath>
</defs>
</svg>
