<svg width="25" height="25" viewBox="0 0 25 25" fill="none" xmlns="http://www.w3.org/2000/svg">
    <path fill-rule="evenodd" clip-rule="evenodd"
          d="M12.5 25C19.4036 25 25 19.4036 25 12.5C25 5.59644 19.4036 0 12.5 0C5.59644 0 0 5.59644 0 12.5C0 19.4036 5.59644 25 12.5 25Z"
          fill="url(#paint0_linear)"/>
    <path d="M15.2695 6.94434C15.2695 6.94434 14.1354 6.94434 13.3826 6.94434C12.2629 6.94434 11.0175 7.38755 11.0175 8.91507C11.023 9.44731 11.0175 9.95705 11.0175 10.5307H9.72217V12.4707H11.0576V18.0554H13.5115V12.4338H15.1312L15.2777 10.5253H13.4692C13.4692 10.5253 13.4733 9.67628 13.4692 9.42973C13.4692 8.82609 14.1366 8.86066 14.1768 8.86066C14.4944 8.86066 15.1119 8.86153 15.2704 8.86066V6.94434H15.2695Z"
          fill="#0D0D0C"/>
    <defs>
        <linearGradient id="paint0_linear" x1="12.5" y1="0" x2="12.5" y2="25" gradientUnits="userSpaceOnUse">
            <stop stop-color="#FF0050"/>
            <stop offset="1" stop-color="#9B00FF"/>
        </linearGradient>
    </defs>
</svg>
