<svg width="21" height="21" viewBox="0 0 21 21" fill="none" xmlns="http://www.w3.org/2000/svg">
<path d="M21.0001 10.0777C21.0001 10.3606 21.0001 10.6435 21.0001 10.9223C20.996 10.9592 20.9878 10.992 20.9837 11.0289C20.9796 11.1232 20.9837 11.2175 20.9755 11.3159C20.9345 11.8407 20.8607 12.3573 20.7418 12.8698C20.1678 15.3052 18.9296 17.3346 17.0191 18.9459C15.8915 19.893 14.6164 20.5654 13.1896 20.9508C13.1364 20.9631 13.0831 20.9836 13.0339 21C13.0134 21 12.9928 21 12.9765 21C12.9765 20.959 12.9765 20.9139 12.9765 20.8729C12.9765 19.4543 12.9765 18.0317 12.9765 16.613C12.9765 16.0678 12.8371 15.5716 12.4885 15.1411C12.4107 15.0428 12.3409 14.9402 12.2671 14.8418C12.2467 14.8172 12.2344 14.7886 12.2098 14.7517C12.3369 14.7271 12.4558 14.7065 12.5746 14.6861C13.2142 14.5631 13.8334 14.3662 14.4073 14.0547C15.461 13.4848 16.1827 12.632 16.5517 11.4881C16.8263 10.6312 16.8632 9.77017 16.6172 8.901C16.4696 8.3721 16.2236 7.88835 15.9202 7.43323C15.8506 7.32663 15.7808 7.22003 15.7111 7.11343C15.6742 7.05603 15.6701 7.00273 15.6907 6.93713C15.7849 6.64603 15.8341 6.34674 15.8506 6.03924C15.8752 5.47755 15.7768 4.93635 15.584 4.41156C15.5717 4.38286 15.5594 4.35006 15.5512 4.32546C15.4693 4.34186 15.3955 4.35826 15.3217 4.36646C15.1904 4.38286 15.0551 4.38696 14.9198 4.41156C14.6698 4.45666 14.4361 4.55916 14.2105 4.66576C13.7842 4.86665 13.3741 5.10445 12.9724 5.35045C12.8821 5.40375 12.8002 5.41605 12.7018 5.39145C12.2098 5.26025 11.7096 5.17415 11.2053 5.12085C10.5862 5.05935 9.9753 5.08805 9.3603 5.17825C9.0159 5.22745 8.67562 5.29715 8.3394 5.38735C8.23695 5.41605 8.1549 5.39965 8.06062 5.34634C7.7367 5.14955 7.40463 4.95685 7.07253 4.77646C6.79784 4.62475 6.51494 4.48946 6.20744 4.42796C5.96965 4.37876 5.72775 4.35826 5.48175 4.32546C5.45715 4.39516 5.42845 4.46486 5.40795 4.53456C5.13735 5.33815 5.09225 6.14584 5.35055 6.95763C5.37515 7.03143 5.35465 7.08473 5.31365 7.13803C5.23165 7.24053 5.14966 7.34303 5.07586 7.45372C4.35016 8.57715 4.12876 9.80303 4.39116 11.1068C4.64126 12.3409 5.33415 13.2716 6.40424 13.9276C7.03974 14.3171 7.73265 14.5466 8.45835 14.6861C8.57722 14.7106 8.69205 14.7271 8.82322 14.7517C8.79862 14.7926 8.77815 14.8214 8.7576 14.8501C8.67975 14.9566 8.5977 15.0673 8.51985 15.1739C8.3025 15.4691 8.16315 15.7972 8.11395 16.1662C8.1057 16.2154 8.08522 16.244 8.04015 16.2523C7.9089 16.2851 7.78185 16.3261 7.6506 16.3465C7.17503 16.4204 6.77733 16.2809 6.46574 15.9079C6.40014 15.83 6.34684 15.7439 6.28944 15.6578C6.24434 15.5921 6.20744 15.5225 6.16234 15.4568C5.89584 15.0674 5.57195 14.7352 5.15785 14.5015C4.83805 14.3212 4.49366 14.2228 4.12466 14.2309C4.09186 14.2309 4.05496 14.2391 4.01396 14.2391C4.05086 14.6491 4.08776 15.0509 4.12056 15.4487C4.46906 15.502 4.61256 15.5675 4.83805 15.7808C4.85035 15.793 4.86265 15.8053 4.87495 15.8135C5.01845 15.9529 5.13735 16.117 5.23985 16.2892C5.44075 16.6213 5.68675 16.9165 6.00244 17.1378C6.59694 17.556 7.25704 17.6749 7.96635 17.5437C7.995 17.5396 8.0196 17.5355 8.0565 17.5314C8.0565 17.5806 8.0565 17.6216 8.0565 17.6585C8.0565 18.3432 8.0565 19.028 8.0565 19.7167C8.0565 20.1431 8.0565 20.5695 8.0565 20.9959C8.03602 20.9959 8.01555 20.9959 7.99912 20.9959C7.9827 20.9877 7.96222 20.9795 7.9458 20.9754C7.65885 20.8852 7.36773 20.8114 7.08073 20.7089C5.58834 20.1759 4.30096 19.3232 3.19397 18.1915C1.88198 16.8508 0.967692 15.2765 0.442896 13.4725C0.221499 12.7099 0.0862002 11.935 0.0411005 11.1437C0.0370005 11.0699 0.0165007 10.9961 0.00830078 10.9223C0.00830078 10.6394 0.00830078 10.3565 0.00830078 10.0777C0.0165007 10.049 0.0288005 10.0244 0.0288005 9.9957C0.0411005 9.8604 0.0534003 9.72097 0.0616003 9.58568C0.1067 9.04455 0.196899 8.5074 0.332198 7.9785C0.824195 6.04744 1.77948 4.37876 3.21037 2.99707C5.09635 1.16439 7.36363 0.172199 9.99172 0.0163999C10.0204 0.0163999 10.0491 0.00409996 10.0737 0C10.3607 0 10.6518 0 10.9388 0C10.9716 0.00409996 11.0003 0.0163999 11.0331 0.0163999C11.2299 0.0327997 11.4267 0.0409996 11.6194 0.0614994C12.3861 0.143499 13.1404 0.307497 13.8703 0.561695C15.9653 1.29148 17.6791 2.55017 18.9829 4.34596C20.2088 6.02694 20.8894 7.91295 20.9796 9.99983C20.9837 10.0244 20.9919 10.0531 21.0001 10.0777Z" fill="url(#paint0_linear)"/>
<defs>
<linearGradient id="paint0_linear" x1="10.5042" y1="0" x2="10.5042" y2="21" gradientUnits="userSpaceOnUse">
<stop stop-color="#FF0050"/>
<stop offset="1" stop-color="#9B00FF"/>
</linearGradient>
</defs>
</svg>
