<svg width="179" height="61" viewBox="0 0 179 61" xmlns="http://www.w3.org/2000/svg">
    <g clip-path="url(#clip0)">
        <path d="M28.9674 22.2935L0.777832 5.8125V55.2101L10.1743 60.6886V44.2303L28.9674 55.2101V22.2935ZM19.5708 38.7517L10.1743 33.2733V22.2935L19.5708 27.7721V38.7517Z"/>
        <path d="M28.9678 0.332031L47.7384 11.3118V44.2284L38.3643 38.7498V16.7903L28.9678 11.3118V0.332031Z"/>
        <path d="M76.25 51.7554V15.8906H92.6356C99.0383 15.8906 103.1 20.5965 103.1 27.3702C103.1 34.1439 99.0383 38.8498 92.5667 38.8498H83.7542V51.7554H76.25ZM83.7542 32.0048H91.6717C93.8747 32.0048 95.3205 30.7928 95.3205 28.4397V26.158C95.3205 23.8764 93.9436 22.593 91.6717 22.593H83.7542V32.0048Z"/>
        <path d="M117.489 51.7534C112.463 51.7534 109.778 49.044 109.778 43.9102V30.7193H106.129V24.8011H107.919C109.916 24.8011 110.466 23.803 110.466 21.9491V17.5283H117.075V24.8011H122.239V30.7193H117.075V45.8352H121.826V51.7534H117.489Z"/>
        <path d="M146.61 51.7532C143.994 51.7532 142.067 49.8992 141.653 47.0472H141.378C140.552 50.5409 137.729 52.3948 133.736 52.3948C128.504 52.3948 125.681 49.1863 125.681 44.5516C125.681 38.8475 129.949 36.1379 136.834 36.1379H140.965V34.4267C140.965 31.7885 139.726 30.1486 136.628 30.1486C133.736 30.1486 132.153 31.7173 131.051 33.3572L126.714 29.3642C128.779 26.1557 131.74 24.2305 137.247 24.2305C144.614 24.2305 148.332 27.7243 148.332 34.0701V45.835H150.741V51.7532H146.61ZM140.896 43.5534V40.3447H137.316C134.493 40.3447 132.979 41.4144 132.979 43.3394V44.1238C132.979 46.049 134.218 46.9758 136.421 46.9758C138.831 47.0473 140.896 46.049 140.896 43.5534Z"/>
        <path d="M155.562 13.75H162.929V29.3651H163.204C164.168 26.5131 166.302 24.1601 170.433 24.1601C175.734 24.1601 178.557 28.0817 178.557 34.8554V51.754H171.259V35.4971C171.259 32.0747 170.295 30.3633 167.61 30.3633C165.2 30.3633 162.929 31.6468 162.929 34.285V51.754H155.562V13.75Z"/>
    </g>
    <defs>
        <clipPath id="clip0">
            <rect x="0.777832" y="0.332031" width="177.778" height="60.3774"/>
        </clipPath>
    </defs>
</svg>
