<svg width="217" height="69" viewBox="0 0 217 69" fill="none" xmlns="http://www.w3.org/2000/svg">
<g clip-path="url(#523kgejgeiwi)">
<path d="M32.1876 24.9276L0 6.21924V62.293L10.7292 68.512V49.8293L32.1876 62.293V24.9276ZM21.4584 43.6103L10.7292 37.3913V24.9276L21.4584 31.1466V43.6103Z" fill="#0D0D0C"/>
<path d="M32.1877 0L53.6206 12.4637V49.8291L42.9169 43.6101V18.6827L32.1877 12.4637V0Z" fill="#0D0D0C"/>
<path d="M80.9803 26.6505H86.1657C88.669 26.6505 90.7125 25.9052 92.2458 24.4661C93.7782 23.0013 94.5444 20.8427 94.5444 18.0159C94.5444 15.0605 93.8552 12.8505 92.4752 11.4628C91.096 10.0751 88.9506 9.35547 86.1401 9.35547H75.3344V35.9019H80.9803V26.6505ZM86.6512 21.7164H80.9803V14.3153H86.6512C87.443 14.3153 87.9798 14.4695 88.2606 14.7522C88.5414 15.0605 88.669 15.6002 88.669 16.3454V19.532C88.669 20.2773 88.5158 20.8427 88.2093 21.2024C87.9285 21.5365 87.3917 21.7164 86.6512 21.7164Z" fill="#0D0D0C"/>
<path d="M103 20.2757H109.004V15.8042H97.5082V35.9003H103V20.2757Z" fill="#0D0D0C"/>
<path d="M126.962 33.4354C127.754 32.5102 128.367 31.3795 128.776 30.0946C129.185 28.8354 129.389 27.3963 129.389 25.8544C129.389 24.3125 129.185 22.8734 128.776 21.5885C128.367 20.3036 127.754 19.1728 126.962 18.2477C126.17 17.3225 125.174 16.5773 123.999 16.089C122.85 15.6007 121.495 15.3438 120.014 15.3438C118.532 15.3438 117.204 15.6007 116.029 16.089C114.854 16.603 113.857 17.3225 113.065 18.2477C112.273 19.1728 111.66 20.3036 111.226 21.5885C110.817 22.8734 110.613 24.2868 110.613 25.8544C110.613 27.3963 110.817 28.8354 111.252 30.0946C111.66 31.3795 112.273 32.4846 113.091 33.4354C113.883 34.3862 114.879 35.1057 116.054 35.6197C117.204 36.108 118.558 36.365 120.039 36.365C121.521 36.365 122.85 36.108 124.024 35.6197C125.148 35.1057 126.145 34.3605 126.962 33.4354ZM122.696 31.0454C121.981 31.6108 121.087 31.8935 119.989 31.8935C118.915 31.8935 117.996 31.6108 117.281 31.0197C116.591 30.4543 116.259 29.6835 116.259 28.6298V23.0275C116.259 21.9739 116.591 21.203 117.281 20.6377C117.996 20.0723 118.89 19.7896 119.989 19.7896C121.061 19.7896 121.981 20.0723 122.696 20.6377C123.386 21.1773 123.718 21.9739 123.718 23.0275V28.6298C123.718 29.7348 123.386 30.5058 122.696 31.0454Z" fill="#0D0D0C"/>
<path d="M140.374 9.35547H134.907V15.8058H131.075V20.2516H134.907V35.9019H145.151V31.4303H140.374V20.2516H145.151V15.8058H140.374V9.35547Z" fill="#0D0D0C"/>
<path d="M163.39 18.2477C162.598 17.3225 161.602 16.5773 160.427 16.089C159.278 15.6007 157.924 15.3438 156.442 15.3438C154.96 15.3438 153.632 15.6007 152.457 16.089C151.282 16.603 150.286 17.3225 149.493 18.2477C148.701 19.1728 148.088 20.3036 147.654 21.5885C147.246 22.8734 147.041 24.2868 147.041 25.8544C147.041 27.3963 147.246 28.8354 147.68 30.0946C148.088 31.3795 148.701 32.4846 149.519 33.4354C150.311 34.3862 151.307 35.1057 152.483 35.6197C153.632 36.108 154.986 36.365 156.468 36.365C157.949 36.365 159.278 36.108 160.453 35.6197C161.628 35.1057 162.624 34.3862 163.416 33.4354C164.208 32.5102 164.821 31.3795 165.23 30.0946C165.638 28.8354 165.843 27.3963 165.843 25.8544C165.843 24.3125 165.638 22.8734 165.23 21.5885C164.795 20.3036 164.182 19.1985 163.39 18.2477ZM159.15 31.0454C158.434 31.6108 157.541 31.8935 156.442 31.8935C155.37 31.8935 154.449 31.6108 153.734 31.0197C153.044 30.4543 152.712 29.6835 152.712 28.6298V23.0275C152.712 21.9739 153.044 21.203 153.734 20.6377C154.449 20.0723 155.344 19.7896 156.442 19.7896C157.515 19.7896 158.434 20.0723 159.15 20.6377C159.84 21.1773 160.171 21.9739 160.171 23.0275V28.6298C160.171 29.7348 159.84 30.5058 159.15 31.0454Z" fill="#0D0D0C"/>
<path d="M180.711 28.8083C180.583 29.9905 180.251 30.7871 179.715 31.224C179.178 31.6609 178.412 31.8921 177.466 31.8921C176.496 31.8921 175.755 31.6095 175.167 30.9927C174.58 30.4017 174.273 29.5793 174.273 28.4743V23.1804C174.273 22.024 174.58 21.1503 175.193 20.6363C175.831 20.0709 176.547 19.8139 177.415 19.8139C178.284 19.8139 178.999 20.0195 179.561 20.4564C180.097 20.8675 180.429 21.6385 180.532 22.7692L180.558 23.1291H186.05L185.998 22.6922C185.896 21.4329 185.59 20.3022 185.105 19.4027C184.619 18.4777 183.981 17.7067 183.189 17.09C182.422 16.4989 181.528 16.062 180.558 15.7793C179.612 15.4966 178.59 15.3682 177.568 15.3682C176.189 15.3682 174.938 15.6251 173.839 16.1134C172.741 16.6017 171.77 17.3212 171.004 18.2463C170.211 19.1715 169.598 20.3022 169.19 21.6128C168.78 22.8977 168.577 24.3882 168.577 26.0072C168.577 27.5235 168.756 28.9369 169.138 30.1961C169.522 31.4553 170.109 32.5603 170.875 33.4855C171.642 34.4106 172.612 35.1302 173.736 35.6441C174.86 36.1581 176.189 36.4151 177.671 36.4151C178.769 36.4151 179.791 36.2609 180.762 35.9525C181.732 35.6441 182.601 35.1815 183.368 34.5648C184.134 33.948 184.772 33.1514 185.232 32.2262C185.718 31.3011 186.024 30.1961 186.127 28.9625L186.177 28.5257H180.685L180.711 28.8083Z" fill="#0D0D0C"/>
<path d="M205.03 18.2477C204.238 17.3225 203.242 16.5773 202.067 16.089C200.918 15.6007 199.563 15.3438 198.081 15.3438C196.6 15.3438 195.272 15.6007 194.096 16.089C192.922 16.603 191.925 17.3225 191.133 18.2477C190.341 19.1728 189.728 20.3036 189.294 21.5885C188.885 22.8734 188.681 24.2868 188.681 25.8544C188.681 27.3963 188.885 28.8354 189.319 30.0946C189.728 31.3795 190.341 32.4846 191.159 33.4354C191.951 34.3862 192.947 35.1057 194.122 35.6197C195.272 36.108 196.625 36.365 198.107 36.365C199.589 36.365 200.918 36.108 202.092 35.6197C203.268 35.1057 204.264 34.3862 205.056 33.4354C205.848 32.5102 206.461 31.3795 206.869 30.0946C207.278 28.8354 207.482 27.3963 207.482 25.8544C207.482 24.3125 207.278 22.8734 206.869 21.5885C206.435 20.3036 205.822 19.1985 205.03 18.2477ZM200.764 31.0454C200.049 31.6108 199.155 31.8935 198.056 31.8935C196.983 31.8935 196.064 31.6108 195.349 31.0197C194.659 30.4543 194.326 29.6835 194.326 28.6298V23.0275C194.326 21.9739 194.659 21.203 195.349 20.6377C196.064 20.0723 196.957 19.7896 198.056 19.7896C199.129 19.7896 200.049 20.0723 200.764 20.6377C201.454 21.1773 201.786 21.9739 201.786 23.0275V28.6298C201.786 29.7348 201.454 30.5058 200.764 31.0454Z" fill="#0D0D0C"/>
<path d="M216.654 9.35547H211.161V35.9019H216.654V9.35547Z" fill="#0D0D0C"/>
<path d="M90.6877 46.6923C90.0747 46.204 89.3591 45.8185 88.5672 45.5615C86.9834 45.0733 85.0418 45.0733 83.458 45.5615C82.6661 45.8185 81.9512 46.1783 81.3374 46.6923C80.7245 47.2062 80.239 47.823 79.8816 48.5168C79.524 49.2364 79.3196 50.0844 79.3196 51.0353V59.0017C79.3196 59.9525 79.4984 60.8006 79.8816 61.5201C80.239 62.2397 80.7245 62.8565 81.3374 63.3448C81.9512 63.833 82.6404 64.2185 83.458 64.4497C84.2499 64.6811 85.0931 64.8096 86.0126 64.8096C86.932 64.8096 87.7753 64.6811 88.5672 64.4497C89.3848 64.2185 90.0996 63.833 90.6877 63.3448C91.3007 62.8308 91.7861 62.2141 92.1439 61.4945C92.501 60.7749 92.6799 59.9269 92.6799 59.0017V51.0353C92.6799 50.0844 92.501 49.2364 92.1439 48.5168C91.7861 47.823 91.3007 47.1805 90.6877 46.6923ZM91.6329 59.0017C91.6329 59.7727 91.4796 60.4408 91.198 61.0319C90.9172 61.623 90.5088 62.137 90.0234 62.5224C89.538 62.9336 88.9507 63.2419 88.2607 63.4476C86.8815 63.8588 85.1188 63.8588 83.7645 63.4476C83.1001 63.2419 82.5128 62.9336 82.0274 62.5224C81.542 62.1112 81.1336 61.623 80.8271 61.0319C80.5455 60.4665 80.3923 59.7727 80.3923 59.0017V51.0353C80.3923 50.2643 80.5455 49.5705 80.8271 49.0051C81.1336 48.414 81.5163 47.9258 82.0018 47.5146C82.4872 47.1034 83.0745 46.795 83.7645 46.5894C84.4545 46.3839 85.195 46.2811 85.9869 46.2811C86.7788 46.2811 87.545 46.3839 88.235 46.5894C88.8993 46.795 89.4866 47.1034 89.9977 47.5146C90.4831 47.9258 90.8915 48.414 91.1731 49.0051C91.4539 49.5705 91.6072 50.2643 91.6072 51.0353V59.0017H91.6329Z" fill="#0D0D0C"/>
<path d="M86.0125 41.0391C82.2319 41.0391 79.2685 42.2469 77.1737 44.6369C75.1045 47.0011 74.0826 50.4961 74.0826 55.0189C74.0826 59.5419 75.13 63.0368 77.1737 65.4011C79.2429 67.791 82.2319 68.9988 86.0125 68.9988C89.7931 68.9988 92.7569 67.791 94.8261 65.4011C96.8953 63.0368 97.9423 59.5419 97.9423 55.0189C97.9423 50.4961 96.8953 47.0011 94.8261 44.6369C92.7569 42.2469 89.7931 41.0391 86.0125 41.0391ZM94.0342 64.7073C92.1688 66.8402 89.4609 67.9452 86.0125 67.9452C82.5384 67.9452 79.856 66.8659 77.9912 64.7073C76.1007 62.5486 75.1556 59.2849 75.1556 55.0189C75.1556 50.7531 76.1007 47.4894 77.9912 45.3307C79.856 43.1977 82.5641 42.0927 86.0125 42.0927C89.4609 42.0927 92.1688 43.172 94.0342 45.3307C95.9244 47.4894 96.8696 50.7531 96.8696 55.0189C96.8952 59.2849 95.9244 62.5486 94.0342 64.7073Z" fill="#0D0D0C"/>
<path d="M136.133 55.3813C136.133 54.1735 135.725 53.1712 134.907 52.4002C134.089 51.6551 133.068 51.2695 131.841 51.2695C130.615 51.2695 129.593 51.6551 128.776 52.4002C127.524 53.5567 127.55 55.1757 127.55 56.5891H136.159V55.3813H136.133ZM135.06 55.4841H128.572V55.3813C128.572 54.4561 128.878 53.7366 129.466 53.1712C130.079 52.6059 130.846 52.3231 131.791 52.3231C132.762 52.3231 133.528 52.6059 134.141 53.1712C134.754 53.7366 135.035 54.4561 135.035 55.3813V55.4841H135.06Z" fill="#0D0D0C"/>
<path d="M117.74 49.6748C116.616 48.287 114.879 47.5931 112.554 47.5931C111.098 47.5931 109.846 47.9016 108.851 48.5183C108.314 48.8524 107.829 49.2378 107.394 49.7261V48.0558H101.621V68.4345H107.394V56.7161C107.394 55.4311 107.727 54.4032 108.365 53.6322C109.004 52.887 109.846 52.5273 110.996 52.5273C111.941 52.5273 112.606 52.7843 112.989 53.2725C113.397 53.8122 113.602 54.5831 113.602 55.5853V68.4345H119.376V55.2513C119.376 52.9127 118.813 51.0367 117.74 49.6748ZM118.302 67.3552H114.649V55.5597C114.649 54.3004 114.368 53.2982 113.832 52.5786C113.244 51.8077 112.299 51.4222 110.996 51.4222C109.54 51.4222 108.39 51.9362 107.548 52.9127C106.73 53.8636 106.321 55.1485 106.321 56.6904V67.3295H102.694V49.0837H106.347V51.2424H107.292C107.906 50.3943 108.519 49.906 109.412 49.392C110.256 48.9038 111.303 48.6211 112.554 48.6211C114.522 48.6211 116.003 49.1865 116.897 50.3172C117.842 51.4736 118.302 53.1183 118.302 55.1999V67.3552Z" fill="#0D0D0C"/>
<path d="M134.881 62.0339C134.728 62.5993 134.473 63.0876 134.038 63.4474C133.477 63.9099 132.761 64.1412 131.841 64.1412C130.922 64.1412 130.156 63.8585 129.491 63.3189C128.853 62.7792 128.546 62.0339 128.546 61.0318V59.901H140.91V57.3825C140.91 55.9948 140.706 54.7099 140.271 53.5278C139.863 52.32 139.224 51.2921 138.432 50.4183C137.641 49.5445 136.644 48.8507 135.52 48.3625C134.396 47.8742 133.144 47.6172 131.765 47.6172C130.385 47.6172 129.134 47.8742 128.009 48.3881C126.885 48.9021 125.89 49.6216 125.098 50.5725C124.306 51.4976 123.667 52.6284 123.232 53.939C122.798 55.2239 122.568 56.6887 122.568 58.2563C122.568 59.8239 122.773 61.263 123.182 62.5736C123.59 63.8843 124.203 65.015 124.969 65.9658C125.761 66.9166 126.732 67.6618 127.882 68.1758C129.006 68.6898 130.309 68.9725 131.739 68.9725C134.192 68.9725 136.236 68.33 137.82 67.0709C139.276 65.9144 140.221 64.1926 140.604 62.111H134.881V62.0339ZM137.231 66.1457C135.852 67.2507 134.013 67.8161 131.816 67.8161C130.538 67.8161 129.389 67.5848 128.393 67.1222C127.397 66.6597 126.553 66.0172 125.864 65.1949C125.174 64.3725 124.638 63.3445 124.255 62.1881C123.871 61.006 123.692 59.6697 123.692 58.2049C123.692 56.7401 123.897 55.4295 124.28 54.2474C124.663 53.091 125.225 52.063 125.94 51.2407C126.63 50.4183 127.499 49.7758 128.495 49.339C129.491 48.9021 130.615 48.6708 131.816 48.6708C133.042 48.6708 134.167 48.9021 135.137 49.339C136.133 49.7758 136.976 50.3926 137.692 51.1379C138.381 51.9088 138.944 52.834 139.301 53.8876C139.684 54.9669 139.863 56.149 139.863 57.3825V58.8731H127.499V59.9781C127.499 61.263 127.499 63.139 128.827 64.1412C129.722 64.8093 130.692 65.2205 131.841 65.2205C132.991 65.2205 133.962 64.9122 134.702 64.2954C135.06 63.987 135.341 63.6015 135.571 63.1647H139.301C138.892 64.3725 138.202 65.3747 137.231 66.1457Z" fill="#0D0D0C"/>
</g>
<defs>
<clipPath id="523kgejgeiwi">
<rect width="216.628" height="69" fill="white"/>
</clipPath>
</defs>
</svg>
