<svg width="275" height="52" viewBox="0 0 275 52" fill="none" xmlns="http://www.w3.org/2000/svg">
<g clip-path="url(#fasfasfsfsa24124)">
<path d="M33.6493 16.1961L40.5111 7.24124C40.5111 7.24124 34.8368 1.57861 21.5091 1.57861C8.31334 1.57861 1.31958 8.42644 1.31958 16.5911C1.31958 28.0481 10.2927 31.077 15.703 31.8671C21.1132 32.6572 29.6905 32.2622 29.6905 37.2663C29.6905 38.4516 28.6348 41.7438 21.773 41.7438C12.668 41.7438 7.52159 35.8178 7.52159 35.8178L0 44.9043C0 44.9043 6.72985 53.464 21.5091 53.464C36.4204 53.464 43.5461 45.8262 43.5461 38.0564C43.5461 29.365 38.9275 25.0192 31.142 22.6488C23.3565 20.1467 15.1751 21.7271 15.1751 16.3277C15.1751 13.8257 18.4741 12.7722 24.0163 12.7722C29.5586 12.6405 33.6493 16.1961 33.6493 16.1961Z" fill="#0D0D0C"/>
<path d="M129.715 2.50391C117.442 2.50391 105.83 2.50391 105.83 2.50391V51.8873H119.818V38.5867C119.818 38.5867 119.949 38.5867 128.659 38.5867C141.459 38.5867 149.64 31.8706 149.64 20.8087C149.64 9.61515 141.986 2.50391 129.715 2.50391ZM129.319 26.7346C125.36 26.7346 119.685 26.7346 119.685 26.7346V14.4876C119.685 14.4876 126.02 14.4876 129.715 14.4876C133.409 14.4876 135.785 16.9897 135.785 20.677C135.785 24.2326 133.673 26.7346 129.319 26.7346Z" fill="#0D0D0C"/>
<path d="M83.2655 2.37048V30.0252C83.2655 30.0252 84.1891 41.087 74.0284 41.087C63.0759 41.087 64.2635 28.9717 64.2635 28.9717V2.50217H50.5399C50.5399 2.50217 50.5399 18.9633 50.5399 29.8935C50.5399 40.8237 55.2904 52.9391 74.2923 52.9391C93.1627 52.9391 96.9889 38.3216 96.9889 30.8153C96.9889 23.4407 96.9889 3.16062 96.9889 2.37048H83.2655Z" fill="#0D0D0C"/>
<path d="M172.073 40.1651V32.5272H195.43V21.0703H172.073V14.2224H196.881V2.63379H172.073H158.35V14.2224V21.0703V32.5272V40.1651V51.7538H172.073H197.805V40.1651H172.073Z" fill="#0D0D0C"/>
<path d="M239.635 34.3726C239.635 34.3726 250.192 31.3438 250.192 19.6235C250.192 9.87853 242.802 2.50391 231.058 2.50391C219.313 2.50391 206.646 2.50391 206.646 2.50391V51.7556H220.633V35.5579H225.648L237.26 51.6239H252.435V50.7021L239.635 34.3726ZM231.058 25.5495C227.759 25.5495 225.912 25.5495 225.912 25.5495H220.765V13.4341C220.765 13.4341 227.232 13.4341 230.794 13.4341C234.357 13.4341 236.468 16.1995 236.468 19.6235C236.468 23.0474 234.489 25.5495 231.058 25.5495Z" fill="#0D0D0C"/>
<path d="M275 45.1705C275 48.9895 271.701 52.1501 267.611 52.1501C263.52 52.1501 260.221 48.9895 260.221 45.1705C260.221 41.3515 263.52 38.191 267.611 38.191C271.569 38.191 275 41.3515 275 45.1705Z" fill="#0D0D0C"/>
<path d="M267.611 21.3336C268.27 21.3336 269.986 20.9385 269.986 18.9632C269.986 16.9879 268.27 16.5928 267.611 16.5928C266.291 16.5928 265.235 17.5146 265.235 18.9632C265.235 20.6751 266.423 21.3336 267.611 21.3336Z" fill="#0D0D0C"/>
<path d="M261.013 0V35.4243H274.208V0H261.013ZM263.124 2.89716H271.701V5.26756H266.555V5.39925L269.194 7.50627V7.90134L266.555 10.0084H271.701V12.3787H263.124V9.87672L266.027 7.63797L263.124 5.39925V2.89716ZM267.611 14.3541C268.93 14.3541 272.097 15.0126 272.097 19.0949C272.097 23.1773 269.062 23.8357 267.611 23.8357C265.235 23.8357 263.124 22.3871 263.124 19.0949C263.124 16.0661 264.972 14.3541 267.611 14.3541ZM267.611 33.0539C264.576 33.0539 263.124 30.5518 263.124 28.3132C263.124 26.3378 264.444 25.0209 264.444 25.0209L265.895 26.4695C265.895 26.4695 265.103 27.1279 265.103 28.3132C265.103 29.4983 266.027 30.5518 267.479 30.5518C268.93 30.5518 269.854 29.6301 269.854 28.3132C269.854 26.9963 268.93 26.2061 268.93 26.2061L270.514 24.7576C270.514 24.7576 271.833 25.8111 271.833 28.3132C272.097 30.6836 270.909 33.0539 267.611 33.0539Z" fill="#0D0D0C"/>
</g>
<defs>
<clipPath id="fasfasfsfsa24124">
<rect width="275" height="52" fill="white"/>
</clipPath>
</defs>
</svg>
