<svg width="275" height="55" viewBox="0 0 275 55" fill="none" xmlns="http://www.w3.org/2000/svg">
<path d="M33.6493 16.1956L40.5111 7.24075C40.5111 7.24075 34.8368 1.57812 21.5091 1.57812C8.31334 1.57812 1.31958 8.42595 1.31958 16.5906C1.31958 28.0476 10.2927 31.0765 15.703 31.8666C21.1132 32.6567 29.6905 32.2617 29.6905 37.2658C29.6905 38.4511 28.6348 41.7433 21.773 41.7433C12.668 41.7433 7.52159 35.8173 7.52159 35.8173L0 44.9038C0 44.9038 6.72985 53.4636 21.5091 53.4636C36.4204 53.4636 43.5461 45.8257 43.5461 38.056C43.5461 29.3645 38.9275 25.0187 31.142 22.6484C23.3565 20.1462 15.1751 21.7266 15.1751 16.3273C15.1751 13.8252 18.4741 12.7717 24.0163 12.7717C29.5586 12.64 33.6493 16.1956 33.6493 16.1956Z" fill="#0D0D0C"/>
<path d="M129.715 2.50391C117.442 2.50391 105.83 2.50391 105.83 2.50391V51.8873H119.818V38.5867C119.818 38.5867 119.949 38.5867 128.659 38.5867C141.459 38.5867 149.64 31.8706 149.64 20.8087C149.64 9.61515 141.986 2.50391 129.715 2.50391ZM129.319 26.7346C125.36 26.7346 119.685 26.7346 119.685 26.7346V14.4876C119.685 14.4876 126.02 14.4876 129.715 14.4876C133.409 14.4876 135.785 16.9897 135.785 20.677C135.785 24.2326 133.673 26.7346 129.319 26.7346Z" fill="#0D0D0C"/>
<path d="M83.2653 2.37109V30.0258C83.2653 30.0258 84.189 41.0877 74.0283 41.0877C63.0758 41.0877 64.2634 28.9723 64.2634 28.9723V2.50278H50.5398C50.5398 2.50278 50.5398 18.9639 50.5398 29.8941C50.5398 40.8243 55.2902 52.9397 74.2922 52.9397C93.1626 52.9397 96.9888 38.3222 96.9888 30.8159C96.9888 23.4413 96.9888 3.16123 96.9888 2.37109H83.2653Z" fill="#0D0D0C"/>
<path d="M172.073 40.1642V32.5262H195.43V21.0693H172.073V14.2215H196.881V2.63281H172.073H158.35V14.2215V21.0693V32.5262V40.1642V51.7529H172.073H197.805V40.1642H172.073Z" fill="#0D0D0C"/>
<path d="M239.635 34.3726C239.635 34.3726 250.192 31.3438 250.192 19.6235C250.192 9.87853 242.802 2.50391 231.058 2.50391C219.313 2.50391 206.646 2.50391 206.646 2.50391V51.7556H220.633V35.5579H225.648L237.26 51.6239H252.435V50.7021L239.635 34.3726ZM231.058 25.5495C227.759 25.5495 225.912 25.5495 225.912 25.5495H220.765V13.4341C220.765 13.4341 227.232 13.4341 230.794 13.4341C234.357 13.4341 236.468 16.1995 236.468 19.6235C236.468 23.0474 234.489 25.5495 231.058 25.5495Z" fill="#0D0D0C"/>
<path d="M275 45.1709C275 48.9899 271.701 52.1505 267.611 52.1505C263.52 52.1505 260.22 48.9899 260.22 45.1709C260.22 41.3519 263.52 38.1914 267.611 38.1914C271.569 38.1914 275 41.3519 275 45.1709Z" fill="#0D0D0C"/>
<path d="M267.611 21.3346C268.27 21.3346 269.986 20.9395 269.986 18.9642C269.986 16.9889 268.27 16.5938 267.611 16.5938C266.291 16.5938 265.235 17.5156 265.235 18.9642C265.235 20.6761 266.423 21.3346 267.611 21.3346Z" fill="#0D0D0C"/>
<path d="M261.013 0V35.4243H274.208V0H261.013ZM263.124 2.89716H271.701V5.26756H266.555V5.39925L269.194 7.50627V7.90134L266.555 10.0084H271.701V12.3787H263.124V9.87672L266.027 7.63797L263.124 5.39925V2.89716ZM267.611 14.3541C268.93 14.3541 272.097 15.0126 272.097 19.0949C272.097 23.1773 269.062 23.8357 267.611 23.8357C265.235 23.8357 263.124 22.3871 263.124 19.0949C263.124 16.0661 264.972 14.3541 267.611 14.3541ZM267.611 33.0539C264.576 33.0539 263.124 30.5518 263.124 28.3132C263.124 26.3378 264.444 25.0209 264.444 25.0209L265.895 26.4695C265.895 26.4695 265.103 27.1279 265.103 28.3132C265.103 29.4983 266.027 30.5518 267.479 30.5518C268.93 30.5518 269.854 29.6301 269.854 28.3132C269.854 26.9963 268.93 26.2061 268.93 26.2061L270.514 24.7576C270.514 24.7576 271.833 25.8111 271.833 28.3132C272.097 30.6836 270.909 33.0539 267.611 33.0539Z" fill="#0D0D0C"/>
</svg>
