<svg width="25" height="25" viewBox="0 0 25 25" fill="none" xmlns="http://www.w3.org/2000/svg">
<path fill-rule="evenodd" clip-rule="evenodd" d="M12.5 25C19.4036 25 25 19.4036 25 12.5C25 5.59644 19.4036 0 12.5 0C5.59644 0 0 5.59644 0 12.5C0 19.4036 5.59644 25 12.5 25Z" fill="url(#paint3_linearasfafssf)"/>
<path d="M20.1388 9.25887C19.6535 9.48203 19.1322 9.63288 18.5841 9.70069C19.1435 9.35362 19.572 8.80363 19.7743 8.14906C19.2518 8.4705 18.6725 8.70397 18.0551 8.8297C17.5616 8.28464 16.8579 7.94434 16.0793 7.94434C14.5849 7.94434 13.373 9.19965 13.373 10.749C13.373 10.9686 13.3968 11.1827 13.4427 11.3884C11.1931 11.2712 9.19872 10.1546 7.86375 8.45797C7.63065 8.87234 7.49722 9.35412 7.49722 9.86816C7.49722 10.8411 7.97513 11.6995 8.70131 12.2024C8.25764 12.188 7.84034 12.0618 7.47511 11.8517C7.47511 11.8634 7.47511 11.8751 7.47511 11.8872C7.47511 13.2462 8.40797 14.3794 9.6463 14.6371C9.41882 14.7017 9.18009 14.7354 8.93312 14.7354C8.7585 14.7354 8.58909 14.7183 8.42359 14.6861C8.76804 15.8 9.76767 16.6108 10.9518 16.6337C10.0254 17.3862 8.85814 17.8347 7.59037 17.8347C7.37201 17.8347 7.1562 17.8212 6.94434 17.7947C8.14238 18.5908 9.56486 19.0554 11.0935 19.0554C16.0719 19.0554 18.7947 14.7817 18.7947 11.0755C18.7947 10.9538 18.7921 10.833 18.7865 10.7127C19.3168 10.3153 19.7761 9.82146 20.1388 9.25887Z" fill="#0D0D0C"/>
<defs>
<linearGradient id="paint3_linearasfafssf" x1="12.5" y1="0" x2="12.5" y2="25" gradientUnits="userSpaceOnUse">
<stop stop-color="#FF0050"/>
<stop offset="1" stop-color="#9B00FF"/>
</linearGradient>
</defs>
</svg>
